<svg xmlns="http://www.w3.org/2000/svg" width="36" height="36" viewBox="0 0 36 36">
  <path fill="#FFFFFF" fill-rule="evenodd" d="M19.2287662,36 L1.986924,36 C0.88925475,36 0,35.110194 0,34.0129523 L0,1.98690825 C0,0.8893875 0.88939425,0 1.986924,0 L34.0132162,0 C35.1104662,0 36,0.8893875 36,1.98690825 L36,34.0129523 C36,35.1103335 35.1103268,36 34.0132162,36 L24.8394787,36 L24.8394787,22.0588162 L29.5188907,22.0588162 L30.2195662,16.6256895 L24.8394787,16.6256895 L24.8394787,13.1569808 C24.8394787,11.5839653 25.276284,10.5120075 27.5319675,10.5120075 L30.4089832,10.5107497 L30.4089832,5.65131825 C29.9114145,5.585106 28.203588,5.4371775 26.216664,5.4371775 C22.0686255,5.4371775 19.2287662,7.9691445 19.2287662,12.6189068 L19.2287662,16.6256895 L14.5373415,16.6256895 L14.5373415,22.0588162 L19.2287662,22.0588162 L19.2287662,36 L19.2287662,36 L19.2287662,36 Z"/>
</svg>
