<?xml version="1.0" encoding="UTF-8"?>
<svg width="108px" height="120px" viewBox="0 0 108 120" version="1.1" xmlns="http://www.w3.org/2000/svg" xmlns:xlink="http://www.w3.org/1999/xlink">
    <!-- Generator: sketchtool 40.3 (33839) - http://www.bohemiancoding.com/sketch -->
    <title>C1F5B177-89E2-435B-A1ED-1072B47D1DBC</title>
    <desc>Created with sketchtool.</desc>
    <defs></defs>
    <g id="PSP-web" stroke="none" stroke-width="1" fill="none" fill-rule="evenodd">
        <g id="1.-PSP-HP" transform="translate(-666.000000, -3873.000000)">
            <g id="Group-5" transform="translate(666.000000, 3873.000000)">
                <g id="logo-roudnice">
                    <path d="M0.184674141,0.186214984 L0.184674141,66.0367036 C0.184674141,66.4490814 0.195415552,66.8700586 0.201469801,67.2851726 C0.203422785,67.3758567 0.208109946,67.4725993 0.210258228,67.5779414 C0.214164195,67.9787883 0.234279928,68.3939023 0.255762749,68.8002215 L0.255762749,68.8142932 C0.279198553,69.226671 0.302048463,69.6302541 0.335639783,70.0371596 C0.340326944,70.1446515 0.347748282,70.2413941 0.356536709,70.3414593 C0.38524557,70.7249121 0.420985172,71.1116873 0.46316962,71.498658 L0.46316962,71.5576808 C0.500666908,71.9585277 0.551053888,72.3593746 0.600854973,72.7631531 C0.614916456,72.8630228 0.626243761,72.9625016 0.63835226,73.0619805 C0.690692224,73.4258893 0.736196745,73.7925342 0.792637975,74.153316 C0.799473418,74.1935765 0.803379385,74.2330554 0.811386618,74.2672573 C0.870562025,74.662241 0.936963472,75.0464756 1.00277902,75.435987 C1.02211356,75.5407427 1.0410575,75.6488208 1.06039204,75.7516221 C1.12152043,76.0954007 1.18323472,76.4303844 1.25100325,76.7636091 C1.26779892,76.8259544 1.27990741,76.8797003 1.28869584,76.942241 C1.36779168,77.3176808 1.44493454,77.6929251 1.53477179,78.0623062 C1.56172297,78.1766384 1.58730705,78.2927296 1.60800868,78.4008078 C1.68183146,78.7103844 1.75838843,79.0207427 1.83553128,79.3303192 C1.8570141,79.4075179 1.87771573,79.4868664 1.89451139,79.5632834 C1.99255118,79.9273876 2.08922387,80.2832834 2.18648246,80.6438697 C2.21675371,80.7687557 2.25757107,80.8883648 2.29311537,81.0105147 C2.37299241,81.2839349 2.45833779,81.5679088 2.54075371,81.8466059 C2.57375913,81.9458893 2.60051501,82.0453681 2.62805208,82.1421107 C2.74015335,82.4858893 2.84873924,82.827127 2.96025461,83.1656287 C3.00458734,83.2965733 3.05224014,83.4327948 3.09442459,83.5664756 C3.18230886,83.8135114 3.27429439,84.0580065 3.36354575,84.3085603 C3.4051443,84.4246515 3.44947703,84.5442606 3.49517685,84.6699283 C3.61059819,84.9935765 3.73129259,85.3119479 3.85667414,85.6334463 C3.91584955,85.7753355 3.97209548,85.9264104 4.03185678,86.0653681 C4.11974105,86.2842606 4.20176637,86.5031531 4.29707197,86.7195049 C4.34804485,86.8611987 4.41444629,87.0007427 4.47147342,87.1316873 C4.59900325,87.4412638 4.72790018,87.7455635 4.86207016,88.0443909 C4.93315877,88.2001564 5.00834864,88.3594397 5.07943725,88.515987 C5.16751682,88.704 5.25266691,88.8884951 5.337817,89.0731857 C5.41359277,89.2324691 5.48682966,89.391557 5.57197975,89.5508404 C5.70419675,89.8320782 5.8418821,90.1054984 5.98405931,90.3867362 C6.07604485,90.5600912 6.15924195,90.7334463 6.25122749,90.9126645 C6.3338387,91.0604169 6.41020036,91.214228 6.48734322,91.3647166 C6.62971573,91.6266059 6.77189295,91.879114 6.91153128,92.1349446 C7.01289114,92.3116221 7.11210271,92.4900586 7.20272116,92.6722085 C7.31540832,92.8574853 7.42692369,93.0501889 7.53297071,93.238202 C7.60679349,93.3578111 7.67514792,93.4739023 7.75365787,93.5989837 C8.13234141,94.2388534 8.52547703,94.8701238 8.93482242,95.4980717 C8.99126365,95.5832834 9.05024376,95.6747492 9.10668499,95.7599609 C9.54278626,96.4107752 9.98240289,97.0533811 10.4394011,97.6758567 C10.4815855,97.7383974 10.5292383,97.8042606 10.5675168,97.8580065 C11.0473649,98.5201564 11.5473288,99.1627622 12.0486597,99.7879739 C12.0787356,99.8221759 12.1049056,99.8538371 12.1263884,99.8819805 C12.6566235,100.547648 13.2028731,101.184195 13.7612311,101.818202 C13.7665042,101.826801 13.7752926,101.829537 13.7832998,101.83501 C17.7273505,106.278723 22.3951769,110.062827 27.5981208,113.007713 L27.7477193,113.096248 L27.7477193,113.092925 C31.7083703,115.319179 35.9838423,117.056638 40.4921099,118.23045 L40.5008984,118.233186 C40.571987,118.25058 40.6356542,118.270124 40.6995168,118.284782 C40.7069382,118.290254 40.7182655,118.290254 40.7323269,118.290254 C43.8844427,119.09742 47.1572528,119.61514 50.5072058,119.845564 C50.5448984,119.845564 50.5837627,119.845564 50.6327826,119.85084 C50.6609056,119.85084 50.6991841,119.859635 50.7366814,119.859635 C50.7843342,119.859635 50.8314011,119.859635 50.8790539,119.865107 C51.9338604,119.924717 52.9996036,119.961655 54.0733541,119.961655 C55.1443703,119.961655 56.2079653,119.924717 57.2610141,119.865107 C57.3133541,119.859635 57.3737013,119.859635 57.4260412,119.859635 C57.4643197,119.859635 57.4951769,119.85084 57.5307212,119.85084 C57.5729056,119.845564 57.6227067,119.845564 57.6648911,119.845564 C61.086128,119.611818 64.4233866,119.071818 67.6430756,118.233186 L67.6579183,118.23045 C72.1620846,117.056638 76.4356036,115.319179 80.3982076,113.092925 L80.3982076,113.096248 L80.5948731,112.988169 C84.2649201,110.904391 87.6539327,108.405498 90.7248043,105.565368 C90.7300774,105.554033 90.7408188,105.554033 90.7468731,105.539375 C91.3616723,104.962436 91.9715892,104.376899 92.5608043,103.782567 C92.5869743,103.742893 92.6178315,103.714554 92.6467356,103.689147 C93.2089996,103.102827 93.7706778,102.509081 94.3097013,101.903414 C94.3518857,101.849668 94.3995385,101.798072 94.4444571,101.74159 C94.9625837,101.158788 95.4658676,100.564456 95.9658315,99.9505798 C96.0222727,99.8733811 96.0886741,99.7967687 96.1531226,99.7201564 C96.6241823,99.1285603 97.0798134,98.5375505 97.5247031,97.9264104 C97.59794,97.8210684 97.6791841,97.7188534 97.7541787,97.6162476 C97.8844427,97.431557 98.0199797,97.2521433 98.1447754,97.0676482 C98.2637121,96.9030879 98.3750322,96.7404821 98.4904535,96.5731857 C98.6535277,96.3281042 98.824609,96.0755961 98.9898315,95.8338371 C99.0796687,95.6976156 99.167553,95.5639349 99.2548514,95.4269316 C99.3661714,95.2596352 99.4769056,95.0944886 99.5768984,94.9211336 C99.7466127,94.6653029 99.9132022,94.4006775 100.066121,94.1423062 C100.168067,93.9884951 100.255951,93.8264756 100.345983,93.6646515 C100.454765,93.5028274 100.548703,93.3404169 100.644595,93.1725342 C100.738533,93.0193094 100.823683,92.8629577 100.91645,92.7036743 C101.074837,92.4249772 101.232443,92.1523388 101.386728,91.8650423 C101.459965,91.7258893 101.541209,91.5836091 101.614251,91.4411336 C101.715025,91.2423713 101.821658,91.0516221 101.921651,90.8503192 C101.994692,90.7105798 102.069882,90.5661498 102.14722,90.4211336 C102.297405,90.1223062 102.45169,89.8207427 102.590743,89.5197655 C102.655191,89.3942932 102.711437,89.2694072 102.767878,89.141785 C102.87666,88.9228925 102.98134,88.6952052 103.089925,88.4675179 C103.152421,88.3398958 103.210815,88.206215 103.269795,88.0727296 C103.412168,87.7570945 103.551611,87.4326645 103.687343,87.1117524 C103.731481,87.0034788 103.779133,86.8926645 103.821513,86.7873225 C103.930099,86.537355 104.034193,86.2756612 104.134186,86.0196352 C104.181058,85.9062801 104.230859,85.7813941 104.278511,85.661785 C104.40858,85.3232834 104.538063,84.9820456 104.665593,84.6437394 C104.69645,84.5555961 104.728088,84.4703844 104.760898,84.3769642 C104.860305,84.0869316 104.962251,83.8109707 105.060877,83.5295375 C105.098569,83.4126645 105.134114,83.3079088 105.174931,83.1910358 C105.290352,82.841785 105.407141,82.4806124 105.517875,82.1219805 C105.543459,82.0481042 105.565528,81.9775505 105.58701,81.9003518 C105.683683,81.5993746 105.773716,81.2839349 105.860819,80.9796352 C105.896363,80.871557 105.921947,80.7687557 105.952804,80.6667362 C106.052797,80.2912964 106.161578,79.9219153 106.256103,79.5525342 C106.266063,79.4954658 106.282859,79.4383974 106.291647,79.3846515 C106.378945,79.048886 106.462142,78.7137068 106.535965,78.3779414 C106.57151,78.2759218 106.585571,78.1819153 106.613694,78.0851726 C106.697086,77.7017199 106.778916,77.3176808 106.86602,76.9281694 C106.86602,76.885759 106.876175,76.8454984 106.882815,76.8058241 C106.956638,76.4479739 107.029094,76.0954007 107.089636,75.7400912 C107.106432,75.6433485 107.127133,75.5440651 107.141976,75.444 C107.209159,75.0517524 107.273412,74.662241 107.339813,74.2647166 C107.344501,74.2330554 107.344501,74.2103844 107.349383,74.1847818 C107.400942,73.8066059 107.457969,73.4313616 107.501716,73.0559218 C107.51773,72.9625016 107.526519,72.8630228 107.541166,72.7631531 C107.593506,72.3681694 107.64526,71.9585277 107.682757,71.5576808 C107.682757,71.5354007 107.687444,71.5207427 107.687444,71.5039349 C107.729824,71.1197003 107.760681,70.7249121 107.789586,70.3414593 C107.800913,70.2413941 107.811068,70.1446515 107.814974,70.0371596 C107.845831,69.6302541 107.867314,69.226671 107.888797,68.8142932 L107.888797,68.7947492 C107.911061,68.3878436 107.92649,67.9842606 107.93645,67.5832182 C107.940551,67.478658 107.940551,67.3758567 107.948558,67.2736417 C107.95266,66.8614593 107.957347,66.4463453 107.957347,66.0367036 L107.957347,0.186214984 L0.184674141,0.186214984 Z" id="Fill-1" fill="#63C5F0"></path>
                    <path d="M107.401,46.8213616 L103.470425,48.8226645 L103.470425,50.9265733 L99.3494344,50.9265733 L94.2833946,53.5054007 L94.2833946,28.03843 L95.2389895,28.03843 L95.2745338,27.8021433 C95.2800022,27.7880717 95.2800022,27.774 95.2800022,27.7536743 C95.2800022,27.7026645 95.2860564,26.9123062 95.487409,26.3521759 C95.5874018,26.0654658 95.7692246,25.7523713 95.9276116,25.5168664 C96.0053403,25.3884625 96.0766242,25.294456 96.1309172,25.2293746 C96.17857,25.1607752 96.2094271,25.1238371 96.2094271,25.1212964 L96.2732897,25.0474202 L96.2732897,19.1879414 L92.3944687,19.1879414 L89.1866929,14.4575179 L83.3724651,5.89432573 C84.2013114,5.68149186 84.8186495,4.92807166 84.8186495,4.02943974 C84.8186495,2.966443 83.957579,2.10474919 82.8832427,2.10474919 C81.825702,2.10474919 80.9646315,2.966443 80.9599443,4.02943974 C80.9646315,4.92807166 81.5745483,5.68149186 82.4028087,5.89432573 L76.5885808,14.4575179 L73.3761179,19.1879414 L69.5019841,19.1879414 L69.5019841,25.0474202 L69.5644796,25.1212964 C69.5644796,25.1212964 69.5920166,25.1607752 69.6476767,25.2293746 L69.6515826,25.2293746 C69.6986495,25.294456 69.7730582,25.3884625 69.8482481,25.5168664 C70.0074163,25.7523713 70.1870908,26.0654658 70.2878647,26.3521759 C70.4776948,26.8781042 70.4964434,27.6174528 70.4964434,27.7423388 L70.4730076,28.03843 L71.493051,28.03843 L71.493051,62.4432508 L68.8020347,62.4432508 L68.8020347,70.0030554 L59.6733982,70.0030554 L59.6733982,63.4841629 L59.6003566,63.4841629 L59.2802626,62.4432508 L48.8624615,62.4432508 L48.5503747,63.4841629 L48.4699118,63.4841629 L48.4699118,70.0030554 L39.3412752,70.0030554 L39.3412752,62.4432508 L36.6576803,62.4432508 L36.6576803,28.03843 L37.6728412,28.03843 L37.6474524,27.7423388 C37.6474524,27.6174528 37.6662011,26.8781042 37.8573982,26.3521759 C37.957391,26.0654658 38.143315,25.7523713 38.3003349,25.5168664 C38.3735718,25.3884625 38.4487617,25.294456 38.4923132,25.2293746 C38.5534416,25.1607752 38.5796116,25.1212964 38.5796116,25.1212964 L38.6385917,25.0474202 L38.6385917,19.1879414 L34.763872,19.1879414 L31.5541432,14.4575179 L25.7358141,5.89432573 C26.5713005,5.68149186 27.1819986,4.92807166 27.1839515,4.02943974 C27.1819986,2.966443 26.3211233,2.10474919 25.2553801,2.10474919 C24.192957,2.10474919 23.3301288,2.966443 23.3301288,4.02943974 C23.3301288,4.92807166 23.9447327,5.68149186 24.770259,5.89432573 L18.9599371,14.4575179 L15.7482553,19.1879414 L11.8735356,19.1879414 L11.8735356,25.0474202 L11.9344687,25.1212964 C11.9344687,25.1212964 11.9653259,25.1607752 12.0123928,25.2293746 C12.0660998,25.294456 12.1405085,25.3884625 12.2203855,25.5168664 C12.3746712,25.7523713 12.554541,26.0654658 12.655315,26.3521759 C12.8517852,26.9123062 12.8646749,27.7026645 12.8646749,27.7536743 L12.8646749,27.7933485 L12.9043204,28.03843 L13.8585483,28.03843 L13.8585483,53.5054007 L8.79465678,50.9265733 L4.67757179,50.9265733 L4.67757179,48.8226645 L0.745043761,46.8213616 L0.745043761,0.748983713 L107.401,0.748983713 L107.401,46.8213616 Z M81.5224036,4.02943974 C81.5224036,3.2787557 82.1309533,2.65960261 82.8832427,2.65608469 C83.6456875,2.65960261 84.2536514,3.2787557 84.2536514,4.02943974 C84.2536514,4.78559609 83.6456875,5.40025407 82.8832427,5.40025407 C82.1309533,5.40025407 81.5224036,4.78559609 81.5224036,4.02943974 L81.5224036,4.02943974 Z M91.9696948,22.7875505 L88.7847689,22.7875505 L88.7847689,19.1879414 L84.4757056,19.1879414 L84.4757056,22.7875505 L81.30074,22.7875505 L81.30074,19.1879414 L76.993825,19.1879414 L76.993825,22.7875505 L73.8088991,22.7875505 L73.8088991,19.5520456 L77.0502662,14.7731531 L82.8832427,6.17321824 L91.9696948,19.5520456 L91.9696948,22.7875505 Z M62.3316043,89.6728925 L62.3316043,88.4816873 C62.4442915,88.8684625 62.5274886,89.2667687 62.586664,89.6728925 L62.3316043,89.6728925 Z M62.6616586,91.4560847 L62.3316043,91.4560847 L62.3316043,90.235759 L62.640957,90.235759 C62.640957,90.2558893 62.640957,90.2760195 62.6448629,90.298886 C62.6550184,90.4579739 62.6616586,90.6111987 62.6616586,90.7790814 L62.6616586,91.4560847 Z M46.9793946,91.4560847 C47.3129642,91.4560847 47.5807183,91.1887231 47.5854054,90.8502215 L47.5854054,94.1107427 L46.9793946,94.7164104 L46.3714307,94.1052704 L46.3714307,90.8502215 C46.3753367,91.1887231 46.6485591,91.4560847 46.9793946,91.4560847 L46.9793946,91.4560847 Z M47.1659045,90.8414267 C47.1659045,90.944228 47.0813403,91.0349121 46.9793946,91.0349121 C46.8774488,91.0349121 46.7948376,90.944228 46.7948376,90.8414267 C46.7948376,90.7421433 46.8774488,90.6622085 46.9793946,90.6567362 C47.0813403,90.6622085 47.1659045,90.7421433 47.1659045,90.8414267 L47.1659045,90.8414267 Z M47.5854054,85.7639023 L47.5854054,90.8361498 C47.5807183,90.5091792 47.3129642,90.235759 46.9793946,90.235759 C46.6485591,90.235759 46.3753367,90.506443 46.3714307,90.8361498 L46.3714307,87.0096352 C46.4022879,86.9551075 46.427872,86.8980391 46.4606821,86.8470293 C46.5130221,86.7422736 46.565362,86.6394723 46.6243421,86.5429251 C46.6928919,86.4266384 46.7620275,86.3097655 46.8372174,86.196215 C46.8961975,86.1022085 46.9559588,86.0117199 47.0170872,85.9177134 C47.0573186,85.8692443 47.0901288,85.8121759 47.1256731,85.7639023 L47.5854054,85.7639023 Z M49.3596911,85.2070945 L47.5705627,85.2070945 C47.9572535,84.7632508 48.3853476,84.3569316 48.8583602,83.9902866 L49.3596911,83.9902866 L49.3596911,85.2070945 Z M48.1429823,85.7639023 L49.3596911,85.7639023 L49.3596911,89.6728925 L48.1429823,89.6728925 L48.1429823,85.7639023 Z M50.527966,91.0349121 C50.4221143,91.0349121 50.3395031,90.944228 50.3395031,90.8414267 C50.3395031,90.7421433 50.4221143,90.6622085 50.527966,90.6567362 C50.6301071,90.6622085 50.715843,90.7421433 50.715843,90.8414267 C50.715843,90.944228 50.6301071,91.0349121 50.527966,91.0349121 L50.527966,91.0349121 Z M51.1339769,92.0099609 L51.1339769,94.1107427 L50.527966,94.7164104 L49.9180492,94.1052704 L49.9180492,92.0099609 L51.1339769,92.0099609 Z M52.9016224,89.6728925 L51.6923349,89.6728925 L51.6923349,85.7639023 L52.9016224,85.7639023 L52.9016224,89.6728925 Z M54.0726315,84.788658 C53.9720528,84.788658 53.8861215,84.7034463 53.8861215,84.5986906 C53.8861215,84.5019479 53.9720528,84.4106775 54.0726315,84.4106775 C54.1747725,84.4106775 54.2558213,84.5019479 54.2558213,84.5986906 C54.2558213,84.7034463 54.1747725,84.788658 54.0726315,84.788658 L54.0726315,84.788658 Z M54.0726315,90.235759 C53.7376948,90.235759 53.470136,90.506443 53.4679877,90.8328274 L53.4679877,85.7639023 L54.6786423,85.7639023 L54.6786423,90.8414267 C54.6786423,90.5091792 54.406787,90.235759 54.0726315,90.235759 L54.0726315,90.235759 Z M53.8861215,90.8414267 C53.8861215,90.7421433 53.9720528,90.6622085 54.0726315,90.6567362 C54.1747725,90.6622085 54.2558213,90.7421433 54.2558213,90.8414267 C54.2558213,90.944228 54.1747725,91.0349121 54.0726315,91.0349121 C53.9720528,91.0349121 53.8861215,90.944228 53.8861215,90.8414267 L53.8861215,90.8414267 Z M54.0726315,91.4560847 C54.406787,91.4560847 54.6786423,91.1771922 54.6786423,90.8441629 L54.6786423,94.1052704 L54.0726315,94.7164104 L53.4679877,94.1107427 L53.4679877,90.8502215 C53.470136,91.1887231 53.7376948,91.4560847 54.0726315,91.4560847 L54.0726315,91.4560847 Z M56.4562481,83.4328925 L55.2422734,83.4328925 L55.2422734,82.3012964 C55.6537671,82.3583648 56.0636984,82.4435765 56.4562481,82.5631857 L56.4562481,83.4328925 Z M55.2422734,85.7639023 L56.4562481,85.7639023 L56.4562481,89.6728925 L55.2422734,89.6728925 L55.2422734,85.7639023 Z M57.62257,91.0349121 C57.5159371,91.0349121 57.430787,90.944228 57.430787,90.8414267 C57.430787,90.7421433 57.5159371,90.6622085 57.62257,90.6567362 C57.7211957,90.6622085 57.8071269,90.7421433 57.8071269,90.8414267 C57.8071269,90.944228 57.7211957,91.0349121 57.62257,91.0349121 L57.62257,91.0349121 Z M58.233268,92.0099609 L58.233268,94.1052704 L57.62257,94.7164104 L57.0165591,94.1052704 L57.0165591,92.0099609 L58.233268,92.0099609 Z M59.9948593,89.6728925 L58.7869389,89.6728925 L58.7869389,85.7639023 L59.9948593,85.7639023 L59.9948593,89.6728925 Z M58.7869389,85.2098306 L58.7869389,83.9902866 L59.2863168,83.9902866 C59.7612825,84.3569316 60.1934778,84.7632508 60.5752861,85.2098306 L58.7869389,85.2098306 Z M61.1691884,90.235759 C60.8350329,90.235759 60.5653259,90.506443 60.5612246,90.8328274 L60.5612246,85.7639023 L61.0229099,85.7639023 C61.0584542,85.8154984 61.0914597,85.8719805 61.1336441,85.9263127 C61.1928195,86.0117199 61.2490655,86.0996678 61.3014054,86.1876156 C61.3826495,86.3070293 61.4531523,86.4266384 61.5189678,86.5429251 C61.5785338,86.6422085 61.634975,86.7450098 61.685362,86.8470293 C61.7181722,86.9040977 61.7437562,86.9611661 61.7699262,87.0176482 L61.7699262,90.8361498 C61.7699262,90.5091792 61.497485,90.235759 61.1691884,90.235759 L61.1691884,90.235759 Z M60.9793584,90.8414267 C60.9793584,90.7421433 61.0691957,90.6622085 61.1691884,90.6567362 C61.2713295,90.6622085 61.3490582,90.7421433 61.3490582,90.8414267 C61.3490582,90.944228 61.2713295,91.0349121 61.1691884,91.0349121 C61.0691957,91.0349121 60.9793584,90.944228 60.9793584,90.8414267 L60.9793584,90.8414267 Z M61.1691884,91.4560847 C61.497485,91.4560847 61.7699262,91.1799283 61.7699262,90.8441629 L61.7699262,94.1107427 L61.1691884,94.7164104 L60.5612246,94.1107427 L60.5612246,90.8502215 C60.5653259,91.1887231 60.8350329,91.4560847 61.1691884,91.4560847 L61.1691884,91.4560847 Z M57.62257,90.235759 L59.9948593,90.235759 L59.9948593,91.4560847 L57.6272571,91.4560847 C57.9608268,91.4472899 58.233268,91.1771922 58.233268,90.8414267 C58.233268,90.5091792 57.9555537,90.235759 57.62257,90.235759 C57.2817743,90.235759 57.0165591,90.5091792 57.0165591,90.8414267 C57.0165591,91.1771922 57.2817743,91.4472899 57.6172969,91.4560847 L55.2422734,91.4560847 L55.2422734,90.235759 L57.62257,90.235759 Z M57.62257,85.2098306 C57.9514524,85.2098306 58.2205736,84.9424691 58.2252608,84.6014267 L58.2252608,85.7639023 L58.233268,85.7639023 L58.233268,89.6728925 L57.0165591,89.6728925 L57.0165591,84.6014267 C57.0165591,84.9424691 57.2864615,85.2098306 57.62257,85.2098306 L57.62257,85.2098306 Z M57.8071269,84.5986906 C57.8071269,84.7034463 57.7211957,84.788658 57.62257,84.788658 C57.5159371,84.788658 57.430787,84.7034463 57.430787,84.5986906 C57.430787,84.5019479 57.5159371,84.4106775 57.62257,84.4106775 C57.7211957,84.4106775 57.8071269,84.5019479 57.8071269,84.5986906 L57.8071269,84.5986906 Z M57.62257,83.9902866 C57.2864615,83.9902866 57.0165591,84.2656612 57.0165591,84.5926319 L57.0165591,82.7390814 C57.0690944,82.7592117 57.1300275,82.7848143 57.1864687,82.8043583 C57.2931016,82.8526319 57.3991486,82.8928925 57.5038286,82.9298306 C57.5770655,82.972241 57.6602626,83.0089837 57.7379913,83.0433811 C57.8823168,83.111785 58.0285953,83.1856612 58.1781939,83.2622736 C58.1897165,83.2763453 58.2084651,83.2851401 58.233268,83.2964756 L58.233268,83.4328925 L58.2252608,83.4328925 L58.2252608,84.5926319 C58.2205736,84.2656612 57.9514524,83.9902866 57.62257,83.9902866 L57.62257,83.9902866 Z M53.4679877,83.4328925 L53.4679877,82.2448143 C53.4955248,82.2360195 53.5189606,82.2360195 53.5478647,82.2334788 C53.7109389,82.224684 53.874013,82.2186254 54.0370872,82.2186254 C54.0491957,82.2186254 54.0613042,82.2158893 54.0726315,82.2158893 C54.082787,82.2158893 54.0947002,82.2186254 54.1034886,82.2186254 C54.2692969,82.2186254 54.4323711,82.224684 54.590758,82.2334788 C54.6243494,82.2360195 54.6505193,82.2360195 54.6786423,82.2448143 L54.6786423,83.4328925 L53.4679877,83.4328925 Z M51.6923349,83.4328925 L51.6923349,82.5631857 C52.0809787,82.4435765 52.4875899,82.3583648 52.9016224,82.3012964 L52.9016224,83.4328925 L51.6923349,83.4328925 Z M54.0726315,83.9902866 L56.4562481,83.9902866 L56.4562481,85.2070945 L54.0866929,85.2070945 C54.4163566,85.203772 54.6786423,84.9338697 54.6786423,84.5986906 C54.6786423,84.2689837 54.406787,83.9902866 54.0726315,83.9902866 C53.7376948,83.9902866 53.4679877,84.2689837 53.4679877,84.5986906 C53.4679877,84.9338697 53.7318358,85.203772 54.0613042,85.2070945 L51.6923349,85.2070945 L51.6923349,83.9902866 L54.0726315,83.9902866 Z M50.527966,90.235759 L52.9016224,90.235759 L52.9016224,91.4560847 L50.5334344,91.4560847 C50.8642698,91.4472899 51.1339769,91.1771922 51.1339769,90.8414267 C51.1339769,90.5091792 50.8623168,90.235759 50.527966,90.235759 C50.1871703,90.235759 49.9180492,90.5091792 49.9180492,90.8414267 C49.9180492,91.1771922 50.1830691,91.4472899 50.5213259,91.4560847 L48.1429823,91.4560847 L48.1429823,90.235759 L50.527966,90.235759 Z M50.527966,85.2098306 C50.8576297,85.2098306 51.1292897,84.9424691 51.1339769,84.6014267 L51.1339769,89.6728925 L49.9180492,89.6728925 L49.9180492,84.6100261 C49.9233222,84.9424691 50.1932246,85.2098306 50.527966,85.2098306 L50.527966,85.2098306 Z M50.715843,84.5986906 C50.715843,84.7034463 50.6301071,84.788658 50.527966,84.788658 C50.4221143,84.788658 50.3395031,84.7034463 50.3395031,84.5986906 C50.3395031,84.5019479 50.4221143,84.4106775 50.527966,84.4106775 C50.6301071,84.4106775 50.715843,84.5019479 50.715843,84.5986906 L50.715843,84.5986906 Z M50.527966,83.9902866 C50.1932246,83.9902866 49.9233222,84.2601889 49.9180492,84.5898958 L49.9180492,83.2964756 C49.9301577,83.2851401 49.9489063,83.2763453 49.969608,83.2710684 C50.1160817,83.1829251 50.2643132,83.111785 50.4146929,83.0379088 C50.4924217,83.0037068 50.5588231,82.972241 50.6367472,82.9378436 C50.7488485,82.8928925 50.8576297,82.8526319 50.9683638,82.8043583 C51.0251957,82.7820782 51.0796839,82.7592117 51.1339769,82.7390814 L51.1339769,84.5926319 C51.1292897,84.2656612 50.8576297,83.9902866 50.527966,83.9902866 L50.527966,83.9902866 Z M45.5640673,89.6728925 C45.6164072,89.2640326 45.7017526,88.8631857 45.8130727,88.4789511 L45.8130727,89.6728925 L45.5640673,89.6728925 Z M45.8130727,90.235759 L45.8130727,91.4525668 L45.4841902,91.4525668 L45.4841902,90.7790814 C45.4841902,90.6111987 45.4910257,90.4579739 45.4996188,90.2900912 C45.4996188,90.2760195 45.5056731,90.2558893 45.5056731,90.235759 L45.8130727,90.235759 Z M62.6616586,118.708007 L62.6222083,118.708007 C62.5274886,118.725401 62.432183,118.742208 62.3355103,118.75628 C62.1222445,118.787746 61.9115175,118.818625 61.7021577,118.84755 C61.5476767,118.875694 61.396711,118.89602 61.2490655,118.915368 C60.9914669,118.94957 60.7309389,118.977909 60.4713873,119.012111 C60.3102662,119.032241 60.147192,119.049049 59.9860709,119.063121 C59.7708521,119.089309 59.564617,119.114912 59.3513512,119.13172 C59.238664,119.148528 59.1232427,119.159863 58.9996188,119.165922 C58.7412391,119.18527 58.4816875,119.208137 58.2205736,119.231003 C58.0674597,119.245075 57.9084868,119.262664 57.7481468,119.267941 C57.7293982,119.267941 57.702447,119.270678 57.6809642,119.270678 C57.5622228,119.276736 57.4514886,119.285336 57.3341143,119.290808 C56.9810148,119.322469 56.6300637,119.336541 56.2691523,119.34514 C56.2267725,119.34514 56.188494,119.34514 56.1416224,119.355889 C56.0154597,119.364684 55.8805085,119.364684 55.7502445,119.370743 C55.7248557,119.370743 55.6893114,119.370743 55.6584542,119.373479 C55.4785844,119.378756 55.2987146,119.378756 55.1168919,119.38755 C54.7759009,119.38755 54.4163566,119.396345 54.0726315,119.396345 C53.7210944,119.396345 53.3746351,119.38755 53.0291523,119.38755 C52.8473295,119.378756 52.6633584,119.378756 52.4875899,119.373479 C52.4594669,119.370743 52.4291957,119.370743 52.3956043,119.370743 C52.2581143,119.364684 52.1264832,119.364684 51.9928991,119.355889 C51.9507146,119.34514 51.9151703,119.34514 51.8774778,119.34514 C51.5204723,119.336541 51.164834,119.322469 50.8125157,119.290808 C50.682447,119.285336 50.5568702,119.276736 50.4312933,119.270678 C50.4221143,119.267941 50.4051233,119.267941 50.391843,119.267941 C50.2441975,119.262664 50.0932318,119.245075 49.9442192,119.237062 C49.677051,119.216932 49.4092969,119.18527 49.1321685,119.165922 C49.0208485,119.154586 48.906013,119.148528 48.7966459,119.13172 C48.5925591,119.114912 48.3853476,119.089309 48.1785266,119.071915 C48.001391,119.051785 47.8236694,119.023446 47.6437996,119.006834 C47.3934271,118.977909 47.1498901,118.94957 46.9036188,118.915368 C46.751872,118.89602 46.5962192,118.875694 46.4397852,118.84755 C46.2271052,118.818625 46.007004,118.785205 45.7896369,118.75628 C45.7017526,118.742208 45.6117201,118.725401 45.5312571,118.708007 L45.4841902,118.708007 L45.4841902,92.0099609 L45.8130727,92.0099609 L45.8130727,94.3442932 L46.9793946,95.512241 L48.1429823,94.3442932 L48.1429823,92.0099609 L49.3596911,92.0099609 L49.3596911,94.3442932 L49.4409353,94.4209055 L50.527966,95.512241 L51.6923349,94.3442932 L51.6923349,92.0099609 L52.9016224,92.0099609 L52.9016224,94.3442932 L52.9875537,94.4209055 L54.0726315,95.512241 L55.2422734,94.3442932 L55.2422734,92.0099609 L56.4562481,92.0099609 L56.4562481,94.3442932 L57.62257,95.512241 L58.7869389,94.3442932 L58.7869389,92.0099609 L59.9948593,92.0099609 L59.9948593,94.3442932 L61.1691884,95.512241 L62.3316043,94.3442932 L62.3316043,92.0099609 L62.6616586,92.0099609 L62.6616586,118.708007 Z M23.8904398,4.02943974 C23.8923928,3.27601954 24.5011378,2.65960261 25.2553801,2.65608469 C26.0137237,2.65960261 26.6216875,3.27601954 26.6236405,4.02943974 C26.6216875,4.78559609 26.0137237,5.40025407 25.2553801,5.40025407 C24.5011378,5.40025407 23.8923928,4.78559609 23.8904398,4.02943974 L23.8904398,4.02943974 Z M34.3396839,22.7875505 L31.1528051,22.7875505 L31.1528051,19.1879414 L26.847843,19.1879414 L26.847843,22.7875505 L23.6629172,22.7875505 L23.6629172,19.1879414 L19.3593222,19.1879414 L19.3593222,22.7875505 L16.1771306,22.7875505 L16.1771306,19.5520456 L25.2553801,6.17321824 L31.0924579,14.7731531 L34.3396839,19.5520456 L34.3396839,22.7875505 Z M0.184732731,0.186117264 L0.184732731,66.0340651 C0.184732731,66.4489837 0.193325859,66.8701564 0.200161302,67.2850749 C0.203481374,67.375759 0.208168535,67.4697655 0.210121519,67.5753029 C0.214222785,67.9755635 0.233752622,68.394 0.255821338,68.8001238 L0.255821338,68.8116547 C0.279257143,69.2238371 0.302107052,69.6276156 0.335698373,70.0372573 C0.340385533,70.1447492 0.347806872,70.2412964 0.3564,70.3380391 C0.385304159,70.7248143 0.420848463,71.1090489 0.460494033,71.4952378 L0.460494033,71.5575831 C0.500725497,71.9619479 0.553065461,72.3594723 0.600718264,72.7577785 C0.614779747,72.8631205 0.626302351,72.9590814 0.638215552,73.0618827 C0.690750814,73.425987 0.734888246,73.7926319 0.792696564,74.1532182 C0.799336709,74.1901564 0.801289693,74.2331531 0.811445208,74.267355 C0.870620615,74.6568664 0.937022061,75.0463779 1.0047906,75.4358893 C1.01885208,75.540645 1.0403349,75.6487231 1.05908354,75.7515244 C1.12138373,76.0927622 1.18192622,76.4277459 1.25301483,76.7635114 C1.2678575,76.823316 1.27977071,76.879798 1.28855913,76.9396026 C1.36785027,77.3175831 1.44499313,77.6930228 1.53483038,78.0624039 C1.56100036,78.1792769 1.58717034,78.2900912 1.60806727,78.4009055 C1.68189005,78.7077459 1.75707993,79.020645 1.83558987,79.3276808 C1.85707269,79.4040977 1.87777432,79.4867687 1.89456998,79.5631857 C1.99260976,79.9272899 2.08908716,80.2831857 2.18517396,80.6439674 C2.21876528,80.768658 2.25626257,80.8882671 2.29180687,81.0104169 C2.37109801,81.2838371 2.45820108,81.5680065 2.5408123,81.8465081 C2.57362242,81.9432508 2.6005736,82.0480065 2.62811067,82.1394723 C2.73943074,82.485987 2.84821193,82.8270293 2.9601179,83.1655309 C3.00445063,83.2992117 3.05015045,83.4328925 3.09448318,83.5665733 C3.18432043,83.810873 3.27435298,84.0581042 3.36145606,84.3084625 C3.4038358,84.4247492 3.44934033,84.5443583 3.49367306,84.6665081 C3.61260976,84.9907427 3.73135118,85.3118502 3.85673273,85.6302215 C3.91590814,85.7752378 3.97215407,85.9263127 4.03191537,86.0652704 C4.11843255,86.2843583 4.20162966,86.5032508 4.29556817,86.7221433 C4.35064231,86.8646189 4.41450488,86.9981042 4.47153201,87.1345212 C4.59906184,87.4413616 4.72639638,87.7456612 4.86408174,88.0444886 C4.93321736,88.2002541 5.00840723,88.359342 5.07949584,88.5131531 C5.16738011,88.7039023 5.2525302,88.891329 5.33728969,89.0732834 C5.41365136,89.2298306 5.48688825,89.3889186 5.57203834,89.5507427 C5.70425533,89.8321759 5.84174539,90.1081368 5.9841179,90.3840977 C6.07610344,90.5601889 6.15793345,90.7360847 6.25128608,90.9100261 C6.33370199,91.0605147 6.40889186,91.2168664 6.48740181,91.3646189 C6.62957902,91.6292443 6.76863146,91.8823388 6.91080868,92.1348469 C7.01021555,92.3115244 7.1121613,92.4901564 7.20277975,92.6723062 C7.31546691,92.8542606 7.42893526,93.0475505 7.53302929,93.2382997 C7.60665678,93.3543909 7.67715949,93.4712638 7.75313056,93.598886 C8.1322047,94.236215 8.52553562,94.8727622 8.93351392,95.4981694 C8.99112694,95.580645 9.05030235,95.6719153 9.10928246,95.7600586 C9.54147776,96.4134137 9.98246148,97.0534788 10.4386785,97.6759544 C10.4816441,97.7384951 10.5292969,97.8008404 10.5689425,97.8526319 C11.0521107,98.5173225 11.5460203,99.1601238 12.0479371,99.7880717 C12.0787942,99.8222736 12.1049642,99.8539349 12.126447,99.8848143 C12.655315,100.54755 13.2048846,101.181557 13.7612897,101.818104 C13.7651957,101.823577 13.7753512,101.829635 13.7819913,101.834912 C17.7272137,106.278625 22.3946495,110.062925 27.5981794,113.007616 L27.7477779,113.096345 L27.7477779,113.08755 C31.7084289,115.316541 35.9839009,117.056541 40.4921685,118.230352 L40.5007617,118.233088 C40.5720456,118.24716 40.638447,118.270026 40.6993801,118.281362 C40.7068014,118.28742 40.7183241,118.28742 40.7323855,118.28742 C43.884306,119.097322 47.1573114,119.611915 50.5072644,119.845466 C50.5447617,119.845466 50.5824542,119.845466 50.6301071,119.850938 C50.6635031,119.850938 50.6992427,119.856997 50.73674,119.856997 C50.7843928,119.856997 50.8314597,119.856997 50.8791125,119.86501 C51.933919,119.924814 52.9982951,119.959016 54.0726315,119.959016 C55.1444289,119.959016 56.2052897,119.924814 57.2595103,119.86501 C57.3118503,119.856997 57.3737599,119.856997 57.4260998,119.856997 C57.4643783,119.856997 57.4950401,119.850938 57.5327327,119.850938 C57.5729642,119.845466 57.62257,119.845466 57.6649497,119.845466 C61.0840383,119.609179 64.4232499,119.071915 67.6431342,118.233088 L67.6585627,118.230352 C72.1621432,117.056541 76.4354669,115.316541 80.3982662,113.08755 L80.3982662,113.096345 L80.5949316,112.988267 C84.2649787,110.904293 87.6539913,108.405401 90.7246676,105.565466 C90.7287689,105.55413 90.7389244,105.55413 90.7455646,105.542599 C91.3615356,104.959798 91.9696948,104.379537 92.5608629,103.777192 C92.5870329,103.742795 92.6178901,103.717388 92.6432788,103.689049 C93.2090582,103.100189 93.7693693,102.509179 94.3089787,101.903511 C94.3538973,101.843707 94.4023313,101.795433 94.4445157,101.741687 C94.9626423,101.155954 95.4659262,100.564358 95.9658901,99.9504821 C96.022136,99.8732834 96.0885374,99.7968664 96.1496658,99.7202541 C96.6242409,99.1284625 97.079872,98.5376482 97.5247617,97.9229902 C97.5979986,97.8209707 97.6790474,97.7216873 97.7542373,97.6134137 C97.8845013,97.4314593 98.0200383,97.252241 98.144834,97.0648143 C98.2629895,96.9029902 98.3715754,96.7403844 98.4905121,96.5732834 C98.6555392,96.328202 98.8246676,96.0756938 98.9896948,95.8364756 C99.0797273,95.6941954 99.1715175,95.5665733 99.2547146,95.4270293 C99.36623,95.2597329 99.4769642,95.0918502 99.576957,94.9184951 C99.7466712,94.6626645 99.9116984,94.4007752 100.064031,94.1422085 C100.166172,93.9831205 100.256009,93.8265733 100.345847,93.6674853 C100.451894,93.4996026 100.546613,93.3403192 100.643286,93.1724365 C100.738592,93.0133485 100.825695,92.8628599 100.912993,92.703772 C101.074114,92.4250749 101.232501,92.1489186 101.386787,91.8622085 C101.460024,91.725987 101.539706,91.5809707 101.61431,91.4412313 C101.714888,91.2424691 101.821716,91.0517199 101.921709,90.8502215 C101.994751,90.7104821 102.069941,90.5687883 102.145716,90.4210358 C102.300197,90.1194723 102.450382,89.820645 102.590606,89.5198632 C102.655055,89.3916547 102.713449,89.2667687 102.770476,89.1416873 C102.876523,88.9227948 102.981203,88.6925668 103.089984,88.4676156 C103.151112,88.3399935 103.213413,88.2063127 103.269854,88.0726319 C103.412226,87.7569967 103.551669,87.4300261 103.685839,87.1116547 C103.731539,87.0061173 103.777825,86.8927622 103.821376,86.7872248 C103.932111,86.5374528 104.034252,86.2728274 104.132877,86.0197329 C104.181116,85.9034463 104.230722,85.7812964 104.277789,85.6644235 C104.408639,85.3233811 104.536169,84.9821433 104.665651,84.6436417 C104.696508,84.5556938 104.728147,84.4677459 104.760371,84.3770619 C104.860364,84.08957 104.96231,83.810873 105.060935,83.5296352 C105.098433,83.4127622 105.136125,83.3080065 105.17499,83.1911336 C105.290411,82.8418827 105.405832,82.4805147 105.517933,82.1218827 C105.543518,82.0480065 105.565,81.9776482 105.589022,81.903772 C105.683742,81.5994723 105.773579,81.2838371 105.863612,80.976215 C105.896422,80.8714593 105.922006,80.768658 105.952668,80.6666384 C106.055395,80.2913941 106.161442,79.9192769 106.256161,79.549114 C106.264754,79.4953681 106.28155,79.4384951 106.291706,79.3786906 C106.379004,79.0487883 106.46142,78.7138046 106.536024,78.3780391 C106.567467,78.2760195 106.584263,78.182013 106.611018,78.0852704 C106.69695,77.6984951 106.77878,77.3175831 106.866078,76.9280717 C106.866078,76.8858567 106.876234,76.8489186 106.882874,76.8059218 C106.956697,76.4478762 107.029152,76.0953029 107.088328,75.7401889 C107.105123,75.6434463 107.127192,75.5467036 107.140668,75.4439023 C107.209022,75.049114 107.273471,74.6568664 107.336552,74.2646189 C107.344559,74.2331531 107.344559,74.2075505 107.349246,74.184684 C107.401,73.8067036 107.45998,73.4285277 107.500212,73.0558241 C107.519742,72.9590814 107.529116,72.8631205 107.541225,72.7577785 C107.593565,72.3655309 107.645319,71.9619479 107.682816,71.5575831 C107.682816,71.5354984 107.687503,71.520645 107.687503,71.4985603 C107.729688,71.119798 107.762693,70.7248143 107.789449,70.3380391 C107.800971,70.2412964 107.810932,70.1447492 107.815033,70.0372573 C107.84589,69.6276156 107.867373,69.2265733 107.888856,68.8143909 L107.888856,68.7948469 C107.909557,68.3879414 107.926353,67.9841629 107.936508,67.5805798 C107.94061,67.4752378 107.94061,67.375759 107.94725,67.2710033 C107.952523,66.8613616 107.95721,66.446443 107.95721,66.0340651 L107.95721,0.186117264 L0.184732731,0.186117264 Z M57.6393656,25.1212964 L61.9617092,31.3014919 L43.9341071,43.9329577 L39.6082481,37.7553029 L57.6393656,25.1212964 Z M66.9230691,38.4033811 C68.1618467,40.2715896 68.7551631,42.3809707 68.7551631,44.4729577 C68.7551631,47.9502215 67.1216875,51.3618176 64.0676116,53.5054007 C62.141579,54.8525668 59.9433005,55.4979088 57.7641613,55.4979088 C54.3813982,55.4979088 51.058787,53.9345863 48.906013,51.0321107 L66.9230691,38.4033811 Z M48.2812535,51.1253355 L48.4443277,51.3502866 L48.4462807,51.3502866 C50.7031486,54.4181042 54.2015284,56.0640977 57.7641613,56.0640977 C60.0573548,56.0640977 62.3644145,55.3818176 64.3896586,53.9627296 C67.5982156,51.7196678 69.3182083,48.1208404 69.3182083,44.4729577 C69.3182083,42.2728925 68.6866134,40.0493746 67.3800673,38.0795375 L67.3847544,38.0795375 L64.2562698,33.6104169 L57.7756839,24.3450098 L38.8251016,37.6163453 L40.3665917,39.8222736 L48.2812535,51.1253355 Z" id="Fill-2" fill="#FFFFFF"></path>
                    <path d="M48.9060521,51.0320521 C51.058826,53.9345277 54.3814373,55.5013681 57.7642004,55.5013681 C59.9439255,55.5013681 62.1388839,54.8525081 64.0656976,53.505342 C67.1203595,51.361759 68.7552022,47.9501629 68.7552022,44.472899 C68.7552022,42.3811075 68.1591515,40.2717264 66.9244752,38.4033225 L48.9060521,51.0320521 Z M88.7256325,14.7705537 L82.8832817,6.17042345 L77.0516723,14.7705537 L73.8089382,19.5492508 L73.8089382,22.790228 L76.993864,22.790228 L76.993864,19.1906189 L81.300779,19.1906189 L81.300779,22.790228 L84.4757447,22.790228 L84.4757447,19.1906189 L88.7846127,19.1906189 L88.7846127,22.790228 L91.9716868,22.790228 L91.9716868,19.5492508 L88.7256325,14.7705537 Z M57.6366705,25.1212378 L39.6096542,37.7525081 L43.9341461,43.9330945 L61.9625295,31.3016287 L57.6366705,25.1212378 Z M25.256591,6.17042345 L16.1777555,19.5492508 L16.1777555,22.790228 L19.3593613,22.790228 L19.3593613,19.1906189 L23.6643233,19.1906189 L23.6643233,22.790228 L26.846515,22.790228 L26.846515,19.1906189 L31.1528441,19.1906189 L31.1528441,22.790228 L34.339723,22.790228 L34.339723,19.5492508 L31.0917157,14.7705537 L25.256591,6.17042345 Z" id="Fill-3" fill="#E32126"></path>
                    <path d="M51.1333714,84.6040456 C51.1286843,84.9425472 50.8589772,85.2124495 50.5273606,85.2124495 C50.193791,85.2124495 49.9246698,84.9425472 49.9188108,84.6101042 L49.9188108,89.6757068 L51.1333714,89.6729707 L51.1333714,84.6040456 Z M57.6213787,83.9901694 C57.9500658,83.9901694 58.2219212,84.2688664 58.2260224,84.5927101 L58.2260224,83.4355114 L58.2320767,83.4355114 L58.2320767,83.2992899 C58.2072738,83.2850228 58.1883298,83.2764235 58.1797367,83.268215 C58.0299429,83.1857394 57.8809302,83.1144039 57.7368,83.046 C57.656923,83.0090619 57.578413,82.9748599 57.5051761,82.9324495 C57.3985432,82.8929707 57.291715,82.8560326 57.1850821,82.8102997 C57.1266879,82.7848925 57.0696608,82.7592899 57.0173208,82.7418958 L57.0173208,84.5927101 C57.0173208,84.2688664 57.287809,83.9901694 57.6213787,83.9901694 L57.6213787,83.9901694 Z M50.3381165,84.6013094 C50.3381165,84.703329 50.4207277,84.7920586 50.5273606,84.7920586 C50.6314546,84.7920586 50.7125034,84.703329 50.7125034,84.6013094 C50.7125034,84.5020261 50.6314546,84.4140782 50.5273606,84.4140782 C50.4207277,84.4140782 50.3381165,84.5020261 50.3381165,84.6013094 L50.3381165,84.6013094 Z M59.2868832,83.9901694 L58.7877005,83.9901694 L58.7877005,85.2124495 L60.5746807,85.2124495 C60.1928723,84.7658697 59.7581382,84.3595505 59.2868832,83.9901694 L59.2868832,83.9901694 Z M50.5273606,83.9901694 C50.8589772,83.9901694 51.1286843,84.2688664 51.1333714,84.5927101 L51.1333714,82.7418958 C51.0810315,82.7592899 51.0220514,82.7848925 50.9675631,82.804241 C50.8589772,82.8560326 50.748243,82.8929707 50.6361418,82.9412443 C50.5582177,82.9748599 50.4890821,83.0035896 50.4160405,83.037987 C50.2615595,83.1144039 50.1174293,83.1830033 49.9690025,83.2709511 C49.9502539,83.2764235 49.9307241,83.2850228 49.9188108,83.2992899 L49.9188108,84.5899739 C49.9246698,84.2628078 50.193791,83.9901694 50.5273606,83.9901694 L50.5273606,83.9901694 Z M58.2320767,85.7671075 L58.2260224,85.7671075 L58.2260224,84.6040456 C58.2219212,84.9425472 57.9500658,85.2124495 57.6213787,85.2124495 C57.287809,85.2124495 57.0173208,84.9425472 57.0173208,84.6040456 L57.0173208,89.6729707 L58.2320767,89.6729707 L58.2320767,85.7671075 Z M57.4294004,84.6013094 C57.4294004,84.703329 57.5172846,84.7920586 57.6213787,84.7920586 C57.7227385,84.7920586 57.8059356,84.703329 57.8059356,84.6013094 C57.8059356,84.5020261 57.7227385,84.4140782 57.6213787,84.4140782 C57.5172846,84.4140782 57.4294004,84.5020261 57.4294004,84.6013094 L57.4294004,84.6013094 Z M54.6792087,82.2448925 C54.6497186,82.2360977 54.6210098,82.2360977 54.5901526,82.2333616 C54.4343045,82.2273029 54.2659573,82.2220261 54.1028832,82.2220261 C54.0901888,82.2220261 54.0814004,82.2159674 54.0712448,82.2159674 C54.0605034,82.2159674 54.0458561,82.2220261 54.0357005,82.2220261 C53.8726264,82.2220261 53.7095523,82.2273029 53.5464781,82.2333616 C53.5210893,82.2360977 53.4968723,82.2360977 53.4687494,82.2448925 L53.4687494,83.4355114 L54.6792087,83.4355114 L54.6792087,82.2448925 Z M61.5175812,86.5428078 C61.4498127,86.4267166 61.3814582,86.3098436 61.3002141,86.1874984 C61.2478741,86.0995505 61.1914329,86.0116026 61.1324528,85.929127 C61.0873389,85.8718632 61.0592159,85.8155765 61.0217186,85.7671075 L60.5600333,85.7671075 L60.5600333,90.8360326 C60.5647204,90.5063257 60.8344275,90.2391596 61.170536,90.2391596 C61.4968796,90.2391596 61.7685396,90.5090619 61.7685396,90.8387687 L61.7685396,87.0175309 C61.7429555,86.9639805 61.7142467,86.9069121 61.6839754,86.8471075 C61.6363226,86.7476287 61.5800767,86.6483453 61.5175812,86.5428078 L61.5175812,86.5428078 Z M25.2567277,2.65948534 C24.4997512,2.6622215 23.8937403,3.27609772 23.8917873,4.02951792 C23.8937403,4.78841042 24.4997512,5.40287296 25.2567277,5.40287296 C26.0123371,5.40287296 26.6169808,4.78841042 26.6222539,4.02951792 C26.6169808,3.27609772 26.0123371,2.6622215 25.2567277,2.65948534 L25.2567277,2.65948534 Z M82.8840043,2.65948534 C82.131715,2.6622215 81.5216029,3.27863844 81.5216029,4.02951792 C81.5216029,4.78841042 82.131715,5.40287296 82.8840043,5.40287296 C83.6443009,5.40287296 84.2549989,4.78841042 84.2549989,4.02951792 C84.2549989,3.27863844 83.6443009,2.6622215 82.8840043,2.65948534 L82.8840043,2.65948534 Z M61.3498199,90.844241 C61.3498199,90.7447622 61.272677,90.6656091 61.170536,90.6540782 C61.0680043,90.6656091 60.978753,90.7447622 60.978753,90.844241 C60.978753,90.9443062 61.0680043,91.0347948 61.170536,91.0347948 C61.272677,91.0347948 61.3498199,90.9443062 61.3498199,90.844241 L61.3498199,90.844241 Z M47.1645179,90.844241 C47.1645179,90.7447622 47.080149,90.6656091 46.978008,90.6540782 C46.8760622,90.6656091 46.7942322,90.7447622 46.7942322,90.844241 C46.7942322,90.9443062 46.8760622,91.0347948 46.978008,91.0347948 C47.080149,91.0347948 47.1645179,90.9443062 47.1645179,90.844241 L47.1645179,90.844241 Z M46.978008,91.4559674 C46.6438524,91.4559674 46.3747313,91.1886059 46.3700441,90.8502997 L46.3700441,94.1078893 L46.978008,94.7164886 L47.5840188,94.1139479 L47.5840188,90.8502997 C47.5801128,91.1886059 47.3143118,91.4559674 46.978008,91.4559674 L46.978008,91.4559674 Z M47.0184347,85.9175961 C46.955158,86.0116026 46.8948108,86.1050228 46.8364166,86.1990293 C46.7625939,86.3125798 46.6922864,86.4267166 46.6231508,86.5428078 C46.5661237,86.6395505 46.5124166,86.7448925 46.4579284,86.8471075 C46.4264854,86.9014397 46.4009013,86.9551857 46.3700441,87.0122541 L46.3700441,90.8387687 C46.3747313,90.5063257 46.6438524,90.2391596 46.978008,90.2391596 C47.3143118,90.2391596 47.5801128,90.5090619 47.5840188,90.8387687 L47.5840188,85.7671075 L47.1242864,85.7671075 C47.0914763,85.8155765 47.055932,85.8718632 47.0184347,85.9175961 L47.0184347,85.9175961 Z M49.3583045,83.9901694 L48.8571689,83.9901694 C48.3866951,84.3595505 47.9558669,84.7658697 47.5699573,85.2071726 L49.3583045,85.2071726 L49.3583045,83.9901694 Z M54.0712448,91.4559674 C53.7384564,91.4559674 53.4714835,91.1886059 53.4687494,90.8502997 L53.4687494,94.1139479 L54.0712448,94.7164886 L54.6792087,94.1078893 L54.6792087,90.8475635 C54.6792087,91.1800065 54.4055957,91.4559674 54.0712448,91.4559674 L54.0712448,91.4559674 Z M54.2571689,90.844241 C54.2571689,90.7447622 54.1761201,90.6656091 54.0712448,90.6540782 C53.9706662,90.6656091 53.8874691,90.7447622 53.8874691,90.844241 C53.8874691,90.9443062 53.9706662,91.0347948 54.0712448,91.0347948 C54.1761201,91.0347948 54.2571689,90.9443062 54.2571689,90.844241 L54.2571689,90.844241 Z M57.6213787,90.6540782 C57.5172846,90.6656091 57.4294004,90.7447622 57.4294004,90.844241 C57.4294004,90.9443062 57.5172846,91.0347948 57.6213787,91.0347948 C57.7227385,91.0347948 57.8059356,90.9443062 57.8059356,90.844241 C57.8059356,90.7447622 57.7227385,90.6656091 57.6213787,90.6540782 L57.6213787,90.6540782 Z M53.4687494,90.8360326 C53.4714835,90.5063257 53.7384564,90.2391596 54.0712448,90.2391596 C54.4055957,90.2391596 54.6792087,90.5090619 54.6792087,90.844241 L54.6792087,85.7671075 L53.4687494,85.7671075 L53.4687494,90.8360326 Z M57.0173208,94.1078893 L57.6213787,94.7164886 L58.2320767,94.1078893 L58.2320767,92.0100391 L57.0173208,92.0100391 L57.0173208,94.1078893 Z M62.6395703,90.2391596 L62.3321707,90.2391596 L62.3321707,91.4559674 L62.6585143,91.4559674 L62.6585143,90.7817003 C62.6585143,90.6138176 62.6536318,90.4580521 62.6442575,90.3015049 C62.6395703,90.2788339 62.6395703,90.2585081 62.6395703,90.2391596 L62.6395703,90.2391596 Z M45.4990134,90.2927101 C45.488272,90.4580521 45.4822177,90.6138176 45.4822177,90.7817003 L45.4822177,91.452645 L45.8138344,91.452645 L45.8138344,90.2391596 L45.5044817,90.2391596 C45.5044817,90.2585081 45.4990134,90.2788339 45.4990134,90.2927101 L45.4990134,90.2927101 Z M58.2320767,90.844241 C58.2320767,91.1800065 57.9621743,91.4499088 57.6260658,91.4559674 L59.9962069,91.4559674 L59.9962069,90.2391596 L57.6213787,90.2391596 C57.9541671,90.2391596 58.2320767,90.5090619 58.2320767,90.844241 L58.2320767,90.844241 Z M55.237762,91.4559674 L57.6159103,91.4559674 C57.2831219,91.4499088 57.0173208,91.1800065 57.0173208,90.844241 C57.0173208,90.5090619 57.2831219,90.2391596 57.6213787,90.2391596 L55.237762,90.2391596 L55.237762,91.4559674 Z M61.170536,91.4559674 C60.8344275,91.4559674 60.5647204,91.1886059 60.5600333,90.8502997 L60.5600333,94.1139479 L61.170536,94.7164886 L61.7685396,94.1139479 L61.7685396,90.8475635 C61.7685396,91.1827427 61.4968796,91.4559674 61.170536,91.4559674 L61.170536,91.4559674 Z M49.9188108,94.1078893 L50.5273606,94.7164886 L51.1333714,94.1139479 L51.1333714,92.0100391 L49.9188108,92.0100391 L49.9188108,94.1078893 Z M50.5273606,90.6540782 C50.4207277,90.6656091 50.3381165,90.7447622 50.3381165,90.844241 C50.3381165,90.9443062 50.4207277,91.0347948 50.5273606,91.0347948 C50.6314546,91.0347948 50.7125034,90.9443062 50.7125034,90.844241 C50.7125034,90.7447622 50.6314546,90.6656091 50.5273606,90.6540782 L50.5273606,90.6540782 Z M51.1333714,90.844241 C51.1333714,91.1800065 50.8656174,91.4499088 50.5328289,91.4559674 L52.901017,91.4559674 L52.901017,90.2391596 L50.5273606,90.2391596 C50.8628832,90.2391596 51.1333714,90.5090619 51.1333714,90.844241 L51.1333714,90.844241 Z M54.6792087,84.6013094 C54.6792087,84.9364886 54.4177042,85.2071726 54.0860875,85.2071726 L56.4542756,85.2071726 L56.4542756,83.9901694 L54.0712448,83.9901694 C54.4055957,83.9901694 54.6792087,84.2716026 54.6792087,84.6013094 L54.6792087,84.6013094 Z M53.4687494,84.6013094 C53.4687494,84.2716026 53.7384564,83.9901694 54.0712448,83.9901694 L51.6909483,83.9901694 L51.6909483,85.2071726 L54.0605034,85.2071726 C53.7331834,85.2071726 53.4687494,84.9364886 53.4687494,84.6013094 L53.4687494,84.6013094 Z M48.1423769,91.4559674 L50.5199392,91.4559674 C50.1844166,91.4499088 49.9188108,91.1800065 49.9188108,90.844241 C49.9188108,90.5090619 50.1885179,90.2391596 50.5273606,90.2391596 L48.1423769,90.2391596 L48.1423769,91.4559674 Z M53.8874691,84.6013094 C53.8874691,84.703329 53.9706662,84.7920586 54.0712448,84.7920586 C54.1761201,84.7920586 54.2571689,84.703329 54.2571689,84.6013094 C54.2571689,84.5020261 54.1761201,84.4140782 54.0712448,84.4140782 C53.9706662,84.4140782 53.8874691,84.5020261 53.8874691,84.6013094 L53.8874691,84.6013094 Z" id="Fill-4" fill="#FAE802"></path>
                    <path d="M82.6047277,33.1295765 L79.2467675,33.1295765 L79.2467675,37.6645603 L82.6047277,37.6645603 L82.6047277,33.1295765 Z M29.4589627,44.7207166 L21.0470712,44.7207166 L21.0470712,32.5727687 L29.4589627,32.5727687 L29.4589627,44.7207166 Z M30.0239609,32.0153746 L20.4934004,32.0153746 L20.4934004,45.2888599 L30.0239609,45.2888599 L30.0239609,32.0153746 Z M87.0975667,44.7287296 L78.6862611,44.7287296 L78.6862611,32.5727687 L87.0975667,32.5727687 L87.0975667,44.7287296 Z M87.6539718,32.0153746 L78.1234112,32.0153746 L78.1234112,45.2888599 L87.6539718,45.2888599 L87.6539718,32.0153746 Z M86.5353027,38.2274267 L83.1650387,38.2274267 L83.1650387,44.1685993 L86.5353027,44.1685993 L86.5353027,38.2274267 Z M82.6047277,38.2274267 L79.2467675,38.2274267 L79.2467675,44.1685993 L82.6047277,44.1685993 L82.6047277,38.2274267 Z M86.5353027,33.1295765 L83.1650387,33.1295765 L83.1650387,37.6645603 L86.5353027,37.6645603 L86.5353027,33.1295765 Z M76.128243,93.0764169 L71.926008,93.0764169 L71.926008,80.3624756 L76.128243,80.3624756 L76.128243,93.0764169 Z M76.6899212,79.8050814 L71.3588615,79.8050814 L71.3588615,93.6445603 L76.6899212,93.6445603 L76.6899212,79.8050814 Z M75.5726192,80.9226059 L72.4849519,80.9226059 L72.4849519,92.521759 L75.5726192,92.521759 L75.5726192,80.9226059 Z M35.6604673,80.9226059 L32.5774872,80.9226059 L32.5774872,92.521759 L35.6604673,92.521759 L35.6604673,80.9226059 Z M36.2213642,93.0764169 L32.0111219,93.0764169 L32.0111219,80.3624756 L36.2213642,80.3624756 L36.2213642,93.0764169 Z M36.7816752,79.8050814 L31.455498,79.8050814 L31.455498,93.6445603 L36.7816752,93.6445603 L36.7816752,79.8050814 Z M28.9033389,38.2274267 L25.535809,38.2274267 L25.535809,44.1685993 L28.9033389,44.1685993 L28.9033389,38.2274267 Z M107.402348,46.8213029 L103.471773,48.8226059 L103.471773,50.9267101 L99.3500007,50.9267101 L94.2841562,53.5080782 L94.2841562,28.0385668 L95.2397512,28.0385668 L95.2752955,27.8020847 C95.2821309,27.788013 95.2821309,27.7739414 95.2821309,27.7538111 C95.2821309,27.7028013 95.287404,26.9097068 95.4879754,26.3521173 C95.5873823,26.0681433 95.7705722,25.7552443 95.9289591,25.5168078 C96.0088362,25.3884039 96.0779718,25.2918567 96.1322647,25.2267752 C96.1799175,25.1642345 96.2094076,25.1239739 96.2094076,25.1212378 L96.2738561,25.0473616 L96.2738561,19.1880782 L92.3958163,19.1880782 L89.1899935,14.4547231 L83.3738127,5.89446254 C84.2012919,5.68162866 84.8172629,4.92801303 84.8172629,4.03211726 C84.8172629,2.96384365 83.9583407,2.10488599 82.8840043,2.10488599 C81.8270495,2.10488599 80.9646119,2.96384365 80.9599248,4.03211726 C80.9646119,4.92801303 81.5780441,5.68162866 82.4041562,5.89446254 L76.5899284,14.4547231 L73.3741454,19.1880782 L69.5033316,19.1880782 L69.5033316,25.0473616 L69.5677801,25.1212378 C69.5677801,25.1212378 69.5953172,25.1642345 69.6476571,25.2267752 L69.6517584,25.2267752 C69.6999971,25.2918567 69.773234,25.3884039 69.8482286,25.5168078 C70.0073967,25.7552443 70.1870712,26.0681433 70.2864781,26.3521173 C70.4784564,26.8780456 70.4944709,27.6148534 70.4944709,27.7422801 L70.4729881,28.0385668 L71.4910785,28.0385668 L71.4910785,62.4431922 L68.8027964,62.4431922 L68.8027964,70.0055375 L59.6741599,70.0055375 L59.6741599,63.4813681 L59.600923,63.4813681 L59.2816101,62.4431922 L48.863809,62.4431922 L48.5484022,63.4813681 L48.4712593,63.4813681 L48.4712593,70.0055375 L39.3426228,70.0055375 L39.3426228,62.4431922 L36.6590278,62.4431922 L36.6590278,28.0385668 L37.6741888,28.0385668 L37.6474329,27.7422801 C37.6474329,27.6148534 37.6661816,26.8780456 37.8581599,26.3521173 C37.9581526,26.0681433 38.1446626,25.749772 38.3010966,25.5168078 C38.3741382,25.3884039 38.4499139,25.2918567 38.4922937,25.2267752 C38.552055,25.1642345 38.579592,25.1212378 38.579592,25.1212378 L38.6399392,25.0473616 L38.6399392,19.1880782 L34.7638524,19.1880782 L31.5554908,14.4547231 L25.7371617,5.89446254 C26.569328,5.68162866 27.1827602,4.92801303 27.1852991,4.03211726 C27.1827602,2.96384365 26.3183696,2.10488599 25.2586807,2.10488599 C24.1909844,2.10488599 23.3301092,2.96384365 23.3301092,4.03211726 C23.3301092,4.92801303 23.9441273,5.68162866 24.7714112,5.89446254 L18.9579646,14.4547231 L15.7496029,19.1880782 L11.8735161,19.1880782 L11.8735161,25.0473616 L11.9352304,25.1212378 C11.9352304,25.1212378 11.9688217,25.1642345 12.0129591,25.2267752 C12.0674474,25.2918567 12.140489,25.3884039 12.2217331,25.5168078 C12.3773859,25.749772 12.5545215,26.0681433 12.6566626,26.3521173 C12.853328,26.9097068 12.8652412,27.7028013 12.8652412,27.7538111 L12.8652412,27.7993485 L12.905668,28.0385668 L13.8585288,28.0385668 L13.8585288,53.5080782 L8.79463725,50.9267101 L4.67755226,50.9267101 L4.67755226,48.8226059 L0.745805425,46.8213029 L0.745805425,0.751661238 L107.402348,0.751661238 L107.402348,46.8213029 Z M107.402348,48.7205863 L104.917957,48.7205863 L106.604359,47.8561564 L107.402348,47.4500326 L107.402348,48.7205863 Z M107.402348,56.7234528 L105.651498,56.7234528 L105.651498,50.9267101 L104.034232,50.9267101 L104.034232,49.2779805 L107.402348,49.2779805 L107.402348,56.7234528 Z M107.402348,57.8779153 L105.651498,58.7732248 L105.651498,57.3003909 L107.402348,57.3003909 L107.402348,57.8779153 Z M107.402348,60.5527036 L86.8069627,71.054658 L84.9180369,72.0209121 L82.8953316,73.0477524 L80.9552376,74.0398046 L80.9552376,71.9927687 L85.3260152,69.7700326 L85.3260152,61.7441042 L92.7459863,57.9572638 L92.7459863,65.9802606 L97.6677005,63.4700326 L97.6677005,55.4468404 L105.087086,51.66 L105.087086,59.6912052 L107.402348,58.5119218 L107.402348,60.5527036 Z M107.402348,62.4263844 L80.9552376,75.9107492 L80.9552376,74.6683388 L82.1590568,74.0571987 L88.1886987,70.9780456 L93.1553316,68.4476873 L97.5134148,66.2214332 L105.497212,62.1564821 L107.402348,61.1839739 L107.402348,62.4263844 Z M107.402348,66.1676873 C107.39688,66.668013 107.388286,67.1628664 107.371491,67.660456 C107.366804,67.8418241 107.359382,68.0300326 107.354695,68.2172638 C107.337899,68.5927036 107.314464,68.9654072 107.29552,69.3347883 C107.283607,69.5308143 107.273451,69.7127687 107.26271,69.8976547 C107.227165,70.389772 107.183614,70.8639088 107.137328,71.3501629 C107.127173,71.4527687 107.115845,71.5495114 107.106471,71.6489902 C107.056084,72.1291857 107.00433,72.6011726 106.940663,73.0672964 C106.913711,73.2553094 106.888323,73.44 106.867426,73.6219544 C106.813133,73.9860586 106.753371,74.3439088 106.69693,74.7052769 C106.665487,74.8872313 106.629943,75.0691857 106.604359,75.2425407 C106.52663,75.7340717 106.431324,76.2062541 106.33055,76.6837134 C106.318637,76.7636482 106.303795,76.8455375 106.282898,76.928013 C106.188373,77.4029316 106.086427,77.8663192 105.974912,78.3269707 C105.939368,78.4948534 105.896402,78.6682085 105.852069,78.8386319 C105.762232,79.1966775 105.667512,79.5605863 105.578261,79.9131596 C105.530022,80.0783062 105.488424,80.2428664 105.440771,80.4082085 C105.305234,80.9024756 105.163057,81.3885342 105.01463,81.8722476 C104.999787,81.9144625 104.989046,81.9514007 104.974399,81.9889251 C104.830073,82.4638436 104.668952,82.9325081 104.512713,83.3986319 C104.456272,83.5497068 104.403932,83.6947231 104.351592,83.8424756 C104.226015,84.2231922 104.092626,84.5757655 103.959042,84.9338111 C103.900062,85.0788274 103.847722,85.2185668 103.795968,85.3690554 C103.412793,86.3386319 102.999346,87.3023453 102.570666,88.2547231 C102.516178,88.3796091 102.451729,88.5044951 102.395484,88.6354397 C102.220301,88.9932899 102.045118,89.3714658 101.862514,89.7273616 C101.806268,89.8495114 101.747093,89.9630619 101.68948,90.0854072 C101.212366,91.0262541 100.708301,91.9588925 100.178261,92.8628013 C100.119086,92.9622801 100.059324,93.0615635 100.003078,93.1618241 C99.7808289,93.5398046 99.5513533,93.9091857 99.3193389,94.2785668 C99.2648506,94.3665147 99.2171978,94.457785 99.1582177,94.540456 C98.581111,95.4498371 97.9797873,96.3369381 97.3575667,97.1984365 C97.3087421,97.269772 97.253668,97.3409121 97.2060152,97.4087296 C96.9269338,97.7955049 96.6462901,98.1709446 96.3564673,98.5489251 C96.3162358,98.602671 96.2738561,98.6624756 96.2262033,98.7162215 C95.557111,99.5839739 94.8612629,100.425342 94.1425649,101.24658 C94.1042864,101.289577 94.0734293,101.326515 94.035932,101.363453 C93.694941,101.746906 93.3519971,102.13114 92.9969447,102.509121 C92.972923,102.528664 92.9473389,102.560326 92.9203877,102.585733 C92.1567711,103.398958 91.3689374,104.189511 90.5543479,104.950945 C90.5381382,104.968534 90.5188036,104.979283 90.5025939,105.001954 C90.1026228,105.372117 89.7034329,105.741498 89.2940875,106.099349 C89.281979,106.114202 89.2731906,106.119479 89.2632304,106.130814 C88.4183696,106.878371 87.5385505,107.594853 86.6460369,108.291401 C86.6419356,108.294723 86.6272882,108.294723 86.6272882,108.302736 C85.2736752,109.349121 83.8770966,110.321433 82.429545,111.231401 L82.422319,111.231401 C81.9424709,111.540977 81.4471942,111.839805 80.9552376,112.129251 L80.9552376,76.5385016 L107.402348,63.0576547 L107.402348,66.1676873 Z M83.8770966,69.869316 L80.9552376,71.3587622 L80.9552376,69.869316 L83.8770966,69.869316 Z M79.3674618,62.576873 L79.3674618,61.8521824 L84.764923,61.8521824 L84.764923,69.314658 L80.9552376,69.314658 L80.9552376,63.6144625 L79.3674618,62.576873 Z M69.5242286,71.5092508 L59.6741599,71.5092508 L59.6741599,70.563127 L68.926225,70.563127 L69.5242286,71.5092508 Z M69.7583913,63.8851466 L69.7583913,70.8189577 L69.3631074,70.2044951 L69.3631074,63.4895765 L69.7583913,63.8851466 Z M79.0079175,63.0119218 L79.7346228,63.4813681 L70.1569953,63.4813681 L69.6785143,63.0119218 L79.0079175,63.0119218 Z M72.0488506,28.0385668 L93.7252123,28.0385668 L93.7252123,53.7920521 L92.9305432,54.1991531 L91.1603588,55.1003257 L91.1603588,57.2151792 L87.000894,57.2151792 L78.8071508,61.3970033 L78.8071508,62.4431922 L72.0488506,62.4431922 L72.0488506,28.0385668 Z M92.6043949,54.9975244 L94.2841562,54.1366124 L99.4890532,51.486645 L104.203361,51.486645 L97.3194835,54.9975244 L92.6043949,54.9975244 Z M91.860894,57.7839088 L84.9762358,61.2895114 L80.2552882,61.2895114 L87.133111,57.7839088 L91.860894,57.7839088 Z M96.220149,63.5808469 L93.3043443,65.0677524 L93.3043443,63.5808469 L96.220149,63.5808469 Z M93.3043443,63.0207166 L93.3043443,57.2177199 L91.7165685,57.2177199 L91.7165685,55.555114 L97.1120767,55.555114 L97.1120767,63.0207166 L93.3043443,63.0207166 Z M95.4465722,25.2267752 C95.2821309,25.4824104 95.07863,25.8175896 94.9579356,26.1676221 C94.7929085,26.6335505 94.7450604,27.1594788 94.7235776,27.4784365 L71.0481418,27.4784365 C71.0346662,27.1628013 70.9770532,26.6335505 70.8192521,26.1676221 C70.6966047,25.8175896 70.4944709,25.4824104 70.3288579,25.2267752 L95.4465722,25.2267752 Z M81.5216029,4.03211726 C81.5216029,3.27869707 82.1342539,2.65954397 82.8840043,2.65954397 C83.6435197,2.65954397 84.2536318,3.27869707 84.2536318,4.03211726 C84.2536318,4.7857329 83.6435197,5.39687296 82.8840043,5.39687296 C82.1342539,5.39687296 81.5216029,4.7857329 81.5216029,4.03211726 L81.5216029,4.03211726 Z M88.725574,14.7730945 L91.9716282,19.551987 L91.9716282,22.7874919 L88.7847494,22.7874919 L88.7847494,19.1880782 L84.4790061,19.1880782 L84.4790061,22.7874919 L81.3009157,22.7874919 L81.3009157,19.1880782 L76.9951725,19.1880782 L76.9951725,22.7874919 L73.8102467,22.7874919 L73.8102467,19.551987 L77.0516137,14.7730945 L82.8840043,6.17042345 L88.725574,14.7730945 Z M77.5556788,23.3530945 L77.5556788,19.748013 L80.7384564,19.748013 L80.7384564,23.3530945 L85.0395125,23.3530945 L85.0395125,19.748013 L88.2291255,19.748013 L88.2291255,23.3530945 L92.5313533,23.3530945 L92.5313533,19.748013 L95.710225,19.748013 L95.710225,24.666645 L70.0718452,24.666645 L70.0718452,19.748013 L73.2485685,19.748013 L73.2485685,23.3530945 L77.5556788,23.3530945 Z M49.1288289,63.4813681 L49.2770604,63.0119218 L58.8701165,63.0119218 L59.0163949,63.4813681 L49.1288289,63.4813681 Z M80.3996137,74.1873616 L27.7477584,74.1873616 L27.7477584,64.0469707 L37.8292557,64.0469707 L37.8292557,72.0693811 L49.0268832,72.0693811 L49.0268832,64.0469707 L59.1136535,64.0469707 L59.1136535,72.0693811 L70.3200694,72.0693811 L70.3200694,64.0469707 L80.3996137,64.0469707 L80.3996137,74.1873616 Z M80.3996137,76.0585016 L27.7477584,76.0585016 L27.7477584,74.7449511 L80.3996137,74.7449511 L80.3996137,76.0585016 Z M80.3996137,112.447622 C80.3492268,112.473811 80.301574,112.507427 80.2513823,112.532834 C79.85063,112.75798 79.4600333,112.974137 79.0561562,113.184235 C78.9561635,113.241498 78.8548036,113.297785 78.7548108,113.343518 C78.3146083,113.579218 77.8730387,113.804169 77.4273678,114.017003 C77.4066662,114.031075 77.379715,114.045928 77.3543262,114.053941 C76.8449881,114.301759 76.337017,114.540195 75.8208434,114.77316 C75.8161562,114.77316 75.8040477,114.77316 75.7974076,114.781954 C75.3048651,115.000847 74.8076354,115.21114 74.3096246,115.42202 C74.2572846,115.441368 74.214319,115.458958 74.1592448,115.47557 C72.0547096,116.331205 69.8872882,117.056482 67.6579573,117.647492 L67.6579573,90.5345277 L67.6202647,90.5345277 C67.1109266,83.4865798 61.2457259,77.9347231 54.0733931,77.9347231 C46.9035993,77.9347231 41.0337114,83.4865798 40.5296463,90.5345277 L40.4894148,90.5345277 L40.4894148,117.647492 C39.931838,117.497003 39.3734799,117.337915 38.821762,117.181368 C38.8098488,117.172769 38.8098488,117.172769 38.8049664,117.172769 C37.1750061,116.686515 35.5657476,116.123648 33.9988687,115.481042 C33.9424275,115.458958 33.8812991,115.432769 33.822319,115.407166 C33.3397367,115.21114 32.8573497,115.009642 32.3808217,114.796026 C32.3573859,114.784691 32.3331689,114.77316 32.3077801,114.767883 C31.805668,114.540195 31.2996499,114.304495 30.8032014,114.06 C30.76297,114.034593 30.7219573,114.017003 30.6817259,114.000195 C30.2514835,113.790098 29.8272955,113.579218 29.4066228,113.352313 C29.3005758,113.297785 29.1837873,113.23798 29.0724673,113.178371 C28.6851906,112.974137 28.3033823,112.760521 27.922941,112.55316 C27.8590785,112.513485 27.8040043,112.48456 27.7477584,112.447622 L27.7477584,76.6158958 L80.3996137,76.6158958 L80.3996137,112.447622 Z M67.0949121,117.783909 C66.8767638,117.843713 66.6713099,117.898046 66.4580441,117.949055 C66.3519971,117.971922 66.2594257,118.000065 66.1506445,118.020195 C65.7688362,118.113616 65.3842937,118.19355 64.9890098,118.276026 C64.40663,118.395635 63.8172195,118.509186 63.2233172,118.608469 L63.2233172,90.5345277 L63.2188253,90.5345277 C63.2119899,90.3385016 63.1979284,90.1397394 63.1811327,89.9544625 L63.1811327,89.9315961 L63.1522286,89.6730293 L63.1483226,89.6730293 C63.026847,88.6891857 62.7503045,87.7456026 62.3315848,86.8874267 L62.3315848,86.8725733 L62.3054148,86.8188274 C62.3013136,86.8047557 62.2960405,86.7986971 62.2913533,86.7846254 C62.1134365,86.429316 61.9228253,86.0908143 61.7074112,85.7638436 L61.7310423,85.7638436 L61.3920043,85.3178502 L61.3049013,85.209772 C60.9385215,84.7289902 60.5168723,84.2917915 60.0592882,83.8874267 C60.0405396,83.873355 60.027064,83.8620195 60.0030423,83.8424756 C59.8774655,83.7396743 59.7432955,83.6315961 59.6130315,83.5268404 C59.597017,83.5127687 59.5802213,83.5039739 59.5560043,83.4865798 L59.4882358,83.4328339 C59.0855306,83.1400651 58.6615378,82.8787622 58.217234,82.6485342 L58.2012195,82.6485342 C58.0715414,82.5744625 57.9354184,82.5148534 57.7957801,82.4489902 C57.770196,82.4376547 57.7434401,82.4261238 57.7227385,82.4181107 C57.6059501,82.3610423 57.4836933,82.3153094 57.3549917,82.2670358 C57.3294076,82.2529642 57.2985505,82.2449511 57.2608579,82.2273616 C57.1288362,82.1818241 57.0032593,82.1394137 56.8724094,82.0997394 C56.8515125,82.084886 56.8368651,82.0796091 56.8214365,82.076873 L56.7804239,82.0655375 C56.7569881,82.0567427 56.7468325,82.0514658 56.7300369,82.0481433 L56.4542756,81.9601954 L56.4542756,81.9687948 C56.0636788,81.8661889 55.6537476,81.7841042 55.2403009,81.7358306 L55.2403009,81.7270358 L55.0182467,81.7069055 C54.7075269,81.6760261 54.390753,81.6531596 54.0733931,81.6531596 C53.7452919,81.6531596 53.4230495,81.6760261 53.1084239,81.7129642 L52.90297,81.7270358 L52.90297,81.7358306 C52.4875703,81.7841042 52.0836933,81.8661889 51.6909483,81.9687948 L51.6909483,81.9601954 L51.3735884,82.0594788 C51.2058271,82.1112704 51.0353316,82.1790879 50.8675703,82.2334202 C50.8468687,82.2449511 50.8199175,82.250228 50.8031219,82.2670358 C50.6716861,82.3127687 50.5334148,82.367101 50.405885,82.4208469 C50.3851834,82.4349186 50.3750278,82.4376547 50.3562792,82.4437134 C50.214102,82.5148534 50.0797367,82.5744625 49.9441996,82.6485342 C49.9400984,82.6485342 49.927404,82.6485342 49.925451,82.6538111 C49.478413,82.8787622 49.0596933,83.1400651 48.6624564,83.4328339 L48.6571834,83.4328339 L48.6081635,83.469772 C48.4470423,83.5833225 48.2933425,83.7170033 48.1423769,83.8424756 C48.1154257,83.865342 48.0919899,83.8874267 48.0658199,83.907557 C47.6217114,84.2998046 47.2102177,84.7350489 46.8424709,85.209772 L46.8405179,85.209772 L46.7573208,85.3178502 L46.7532195,85.3233225 C46.7424781,85.334658 46.7424781,85.3373941 46.7364239,85.3487296 L46.4163298,85.7638436 L46.4378127,85.7638436 C46.3344998,85.9229316 46.23646,86.0908143 46.1397873,86.2534202 L46.1091255,86.3099023 C46.0069844,86.4863844 45.9083588,86.6650163 45.8185215,86.8530293 L45.8138344,86.8725733 C45.3970676,87.7456026 45.1185722,88.6837134 44.9998307,89.6730293 L44.9910423,89.6730293 L44.9742467,89.8461889 C44.9742467,89.8723779 44.9742467,89.8979805 44.9662394,89.9288599 L44.9662394,89.9489902 C44.955498,90.0854072 44.9433895,90.2216287 44.9387024,90.366645 C44.9265939,90.5116612 44.9238597,90.6621498 44.9238597,90.8132248 L44.9238597,118.608469 C44.3246843,118.509186 43.7335161,118.395635 43.147621,118.269967 C42.7636644,118.188078 42.382442,118.113616 41.9986807,118.022932 C41.8920477,118.000065 41.7813136,117.971922 41.6705794,117.949055 C41.4651255,117.895309 41.2584998,117.843713 41.0477729,117.783909 L41.0477729,91.0885993 L41.0557801,91.0885993 L41.0665215,90.8300326 C41.4315342,83.9532899 47.1123732,78.4887948 54.0733931,78.4887948 C61.03246,78.4887948 66.719158,83.9532899 67.0726481,90.8300326 L67.0894438,91.0885993 L67.0949121,91.0885993 L67.0949121,117.783909 Z M62.3315848,89.6730293 L62.3315848,88.4816287 C62.4456391,88.8684039 62.5274691,89.2639739 62.5872304,89.6730293 L62.3315848,89.6730293 Z M62.6632014,91.4560261 L62.3315848,91.4560261 L62.3315848,90.2329642 L62.6395703,90.2329642 C62.6395703,90.2558306 62.6395703,90.2759609 62.6442575,90.2988274 C62.6585143,90.4547883 62.6632014,90.6138762 62.6632014,90.781759 L62.6632014,91.4560261 Z M46.9801562,91.4560261 C47.3129447,91.4560261 47.5787458,91.185342 47.5859718,90.852899 L47.5859718,94.1140065 L46.9801562,94.7163518 L46.3700441,94.1079479 L46.3700441,90.852899 C46.3747313,91.185342 46.6465866,91.4560261 46.9801562,91.4560261 L46.9801562,91.4560261 Z M47.1666662,90.8415635 C47.1666662,90.9408469 47.0813208,91.0348534 46.9801562,91.0348534 C46.8760622,91.0348534 46.7948181,90.9408469 46.7948181,90.8415635 C46.7948181,90.7420847 46.8760622,90.6621498 46.9801562,90.6541368 C47.0813208,90.6621498 47.1666662,90.7420847 47.1666662,90.8415635 L47.1666662,90.8415635 Z M47.5859718,85.7638436 L47.5859718,90.8360912 C47.5787458,90.5091205 47.3129447,90.2329642 46.9801562,90.2329642 C46.6465866,90.2329642 46.3747313,90.5030619 46.3700441,90.8360912 L46.3700441,87.0123127 C46.3995342,86.9525081 46.4292195,86.8981759 46.4620297,86.84443 C46.5143696,86.7449511 46.5661237,86.6396091 46.6251038,86.5428664 C46.6961924,86.4265798 46.7625939,86.3099023 46.8385649,86.1936156 C46.8948108,86.1050814 46.9559392,86.0116612 47.0184347,85.9176547 C47.057885,85.8691857 47.0914763,85.8121173 47.1242864,85.7638436 L47.5859718,85.7638436 Z M49.3604528,85.2037134 L47.5719103,85.2037134 C47.957234,84.760456 48.387281,84.356873 48.8591219,83.990228 L49.3604528,83.990228 L49.3604528,85.2037134 Z M48.1464781,85.7638436 L49.3604528,85.7638436 L49.3604528,89.6730293 L48.1464781,89.6730293 L48.1464781,85.7638436 Z M50.5293136,91.0348534 C50.4226807,91.0348534 50.3394835,90.9408469 50.3394835,90.8415635 C50.3394835,90.7420847 50.4226807,90.6621498 50.5293136,90.6541368 C50.6334076,90.6621498 50.7132846,90.7420847 50.7132846,90.8415635 C50.7132846,90.9408469 50.6334076,91.0348534 50.5293136,91.0348534 L50.5293136,91.0348534 Z M51.1333714,92.0126384 L51.1333714,94.1140065 L50.5293136,94.7163518 L49.9186156,94.1079479 L49.9186156,92.0126384 L51.1333714,92.0126384 Z M52.90297,89.6730293 L51.6930966,89.6730293 L51.6930966,85.7638436 L52.90297,85.7638436 L52.90297,89.6730293 Z M54.0733931,84.7921173 C53.9720333,84.7921173 53.8874691,84.7008469 53.8874691,84.6013681 C53.8874691,84.4993485 53.9720333,84.4106189 54.0733931,84.4106189 C54.1761201,84.4106189 54.2558018,84.4993485 54.2558018,84.6013681 C54.2558018,84.7008469 54.1761201,84.7921173 54.0733931,84.7921173 L54.0733931,84.7921173 Z M54.0733931,90.2329642 C53.7378705,90.2329642 53.4701165,90.5030619 53.4679682,90.8327687 L53.4679682,85.7638436 L54.6792087,85.7638436 L54.6792087,90.8415635 C54.6792087,90.5091205 54.4075486,90.2329642 54.0733931,90.2329642 L54.0733931,90.2329642 Z M53.8874691,90.8415635 C53.8874691,90.7420847 53.9720333,90.6621498 54.0733931,90.6541368 C54.1761201,90.6621498 54.2558018,90.7420847 54.2558018,90.8415635 C54.2558018,90.9408469 54.1761201,91.0348534 54.0733931,91.0348534 C53.9720333,91.0348534 53.8874691,90.9408469 53.8874691,90.8415635 L53.8874691,90.8415635 Z M54.0733931,91.4560261 C54.4075486,91.4560261 54.6792087,91.177329 54.6792087,90.8476221 L54.6792087,94.1079479 L54.0733931,94.7163518 L53.4679682,94.1140065 L53.4679682,90.852899 C53.4701165,91.185342 53.7378705,91.4560261 54.0733931,91.4560261 L54.0733931,91.4560261 Z M56.4542756,83.4328339 L55.2403009,83.4328339 L55.2403009,82.3012378 C55.6537476,82.3583062 56.0636788,82.4437134 56.4542756,82.563127 L56.4542756,83.4328339 Z M55.2403009,85.7638436 L56.4542756,85.7638436 L56.4542756,89.6730293 L55.2403009,89.6730293 L55.2403009,85.7638436 Z M57.6205975,91.0348534 C57.5159175,91.0348534 57.4286192,90.9408469 57.4286192,90.8415635 C57.4286192,90.7420847 57.5159175,90.6621498 57.6205975,90.6541368 C57.7227385,90.6621498 57.8078886,90.7420847 57.8078886,90.8415635 C57.8078886,90.9408469 57.7227385,91.0348534 57.6205975,91.0348534 L57.6205975,91.0348534 Z M58.2332485,92.0126384 L58.2332485,94.1079479 L57.6205975,94.7163518 L57.0167349,94.1079479 L57.0167349,92.0126384 L58.2332485,92.0126384 Z M59.998941,89.6730293 L58.7904347,89.6730293 L58.7904347,85.7638436 L59.998941,85.7638436 L59.998941,89.6730293 Z M58.7904347,85.209772 L58.7904347,83.990228 L59.2862973,83.990228 C59.7600911,84.356873 60.1948253,84.760456 60.5780007,85.209772 L58.7904347,85.209772 Z M61.1693642,90.2329642 C60.8363805,90.2329642 60.5666734,90.5030619 60.5619863,90.8327687 L60.5619863,85.7638436 L61.0228904,85.7638436 C61.05863,85.8156352 61.0914401,85.8719218 61.1349917,85.9229316 C61.1914329,86.0116612 61.250413,86.0996091 61.3049013,86.1848208 C61.38263,86.3071661 61.4511797,86.4265798 61.5222684,86.5428664 C61.5787096,86.6421498 61.6382756,86.7449511 61.6826083,86.84443 C61.7161996,86.9042345 61.7451038,86.9613029 61.7704926,87.0175896 L61.7704926,90.8360912 C61.7704926,90.5091205 61.5013714,90.2329642 61.1693642,90.2329642 L61.1693642,90.2329642 Z M60.978753,90.8415635 C60.978753,90.7420847 61.0705432,90.6621498 61.1693642,90.6541368 C61.2713099,90.6621498 61.3498199,90.7420847 61.3498199,90.8415635 C61.3498199,90.9408469 61.2713099,91.0348534 61.1693642,91.0348534 C61.0705432,91.0348534 60.978753,90.9408469 60.978753,90.8415635 L60.978753,90.8415635 Z M61.1693642,91.4560261 C61.5013714,91.4560261 61.7704926,91.177329 61.7704926,90.8476221 L61.7704926,94.1140065 L61.1693642,94.7163518 L60.5619863,94.1140065 L60.5619863,90.852899 C60.5666734,91.185342 60.8363805,91.4560261 61.1693642,91.4560261 L61.1693642,91.4560261 Z M57.6205975,90.2329642 L59.998941,90.2329642 L59.998941,91.4560261 L57.6246987,91.4560261 C57.9608072,91.4472313 58.2332485,91.177329 58.2332485,90.8415635 C58.2332485,90.5091205 57.9569013,90.2329642 57.6205975,90.2329642 C57.2817548,90.2329642 57.0167349,90.5091205 57.0167349,90.8415635 C57.0167349,91.177329 57.2817548,91.4472313 57.6159103,91.4560261 L55.2403009,91.4560261 L55.2403009,90.2329642 L57.6205975,90.2329642 Z M57.6205975,85.209772 C57.9522141,85.209772 58.2219212,84.9426059 58.2260224,84.6013681 L58.2260224,85.7638436 L58.2332485,85.7638436 L58.2332485,89.6730293 L57.0167349,89.6730293 L57.0167349,84.6013681 C57.0167349,84.9426059 57.287809,85.209772 57.6205975,85.209772 L57.6205975,85.209772 Z M57.8078886,84.6013681 C57.8078886,84.7008469 57.7227385,84.7921173 57.6205975,84.7921173 C57.5159175,84.7921173 57.4286192,84.7008469 57.4286192,84.6013681 C57.4286192,84.4993485 57.5159175,84.4106189 57.6205975,84.4106189 C57.7227385,84.4106189 57.8078886,84.4993485 57.8078886,84.6013681 L57.8078886,84.6013681 Z M57.6205975,83.990228 C57.287809,83.990228 57.0167349,84.2628664 57.0167349,84.5925733 L57.0167349,82.7390228 C57.0723949,82.7593485 57.1288362,82.7847557 57.1878163,82.8042997 C57.2938633,82.8498371 57.4004962,82.8928339 57.5071291,82.9325081 C57.580366,82.9721824 57.6582901,83.0063844 57.7393389,83.0433225 C57.8809302,83.1144625 58.0299429,83.1856026 58.1783696,83.262215 C58.1904781,83.2737459 58.2117656,83.2850814 58.2332485,83.2938762 L58.2332485,83.4328339 L58.2260224,83.4328339 L58.2260224,84.5925733 C58.2219212,84.2628664 57.9522141,83.990228 57.6205975,83.990228 L57.6205975,83.990228 Z M53.4679682,83.4328339 L53.4679682,82.2449511 C53.4968723,82.2361564 53.5197222,82.2361564 53.5464781,82.2334202 C53.7122864,82.2246254 53.8753606,82.2220847 54.0357005,82.2220847 C54.047809,82.2220847 54.0593316,82.2160261 54.0733931,82.2160261 C54.0833533,82.2160261 54.0948759,82.2220847 54.1048362,82.2220847 C54.2679103,82.2220847 54.4331327,82.2246254 54.5921056,82.2334202 C54.6256969,82.2361564 54.6504998,82.2361564 54.6792087,82.2449511 L54.6792087,83.4328339 L53.4679682,83.4328339 Z M51.6909483,83.4328339 L51.6909483,82.563127 C52.0836933,82.4437134 52.4875703,82.3583062 52.90297,82.3012378 L52.90297,83.4328339 L51.6909483,83.4328339 Z M54.0733931,83.990228 L56.4542756,83.990228 L56.4542756,85.2037134 L54.0901888,85.2037134 C54.4163371,85.2009772 54.6792087,84.9338111 54.6792087,84.6013681 C54.6792087,84.2689251 54.4075486,83.990228 54.0733931,83.990228 C53.7378705,83.990228 53.4679682,84.2689251 53.4679682,84.6013681 C53.4679682,84.9338111 53.7331834,85.2009772 54.0593316,85.2037134 L51.6909483,85.2037134 L51.6909483,83.990228 L54.0733931,83.990228 Z M50.5293136,90.2329642 L52.90297,90.2329642 L52.90297,91.4560261 L50.5334148,91.4560261 C50.8656174,91.4472313 51.1333714,91.177329 51.1333714,90.8415635 C51.1333714,90.5091205 50.8628832,90.2329642 50.5293136,90.2329642 C50.1885179,90.2329642 49.9186156,90.5091205 49.9186156,90.8415635 C49.9186156,91.177329 50.1844166,91.4472313 50.5226734,91.4560261 L48.1464781,91.4560261 L48.1464781,90.2329642 L50.5293136,90.2329642 Z M50.5293136,85.209772 C50.8576101,85.209772 51.1273172,84.9426059 51.1333714,84.6013681 L51.1333714,89.6730293 L49.9186156,89.6730293 L49.9186156,84.6068404 C49.923498,84.9426059 50.1932051,85.209772 50.5293136,85.209772 L50.5293136,85.209772 Z M50.7132846,84.6013681 C50.7132846,84.7008469 50.6334076,84.7921173 50.5293136,84.7921173 C50.4226807,84.7921173 50.3394835,84.7008469 50.3394835,84.6013681 C50.3394835,84.4993485 50.4226807,84.4106189 50.5293136,84.4106189 C50.6334076,84.4106189 50.7132846,84.4993485 50.7132846,84.6013681 L50.7132846,84.6013681 Z M50.5293136,83.990228 C50.1932051,83.990228 49.923498,84.2601303 49.9186156,84.5898371 L49.9186156,83.2938762 C49.9334582,83.2850814 49.9502539,83.2737459 49.9690025,83.2710098 C50.117234,83.1856026 50.2642937,83.1144625 50.4179935,83.0380456 C50.4918163,83.0036482 50.5629049,82.9721824 50.6380948,82.9413029 C50.7488289,82.8928339 50.8576101,82.8498371 50.966196,82.8042997 C51.0265432,82.7820195 51.0810315,82.7593485 51.1333714,82.7390228 L51.1333714,84.5925733 C51.1273172,84.2628664 50.8576101,83.990228 50.5293136,83.990228 L50.5293136,83.990228 Z M45.5654148,89.6730293 C45.6177548,89.2606515 45.6995848,88.863127 45.8138344,88.4761564 L45.8138344,89.6730293 L45.5654148,89.6730293 Z M45.8138344,90.2329642 L45.8138344,91.4499674 L45.4869049,91.4499674 L45.4869049,90.781759 C45.4869049,90.6138762 45.4923732,90.4547883 45.5009664,90.290228 C45.5009664,90.2759609 45.5056535,90.2558306 45.5056535,90.2329642 L45.8138344,90.2329642 Z M62.6632014,118.707948 L62.6227747,118.707948 C62.5274691,118.72202 62.4307964,118.74215 62.3390061,118.756221 C62.125545,118.790619 61.9128651,118.818762 61.7021382,118.850228 C61.5490242,118.875831 61.3988398,118.895961 61.250413,118.912769 C60.9928145,118.952443 60.7297476,118.97785 60.4694148,119.012052 C60.3116137,119.032182 60.1471725,119.049186 59.9862467,119.063062 C59.7686843,119.091987 59.5653787,119.111531 59.3526987,119.134397 C59.2392304,119.148469 59.1232231,119.159805 58.9997946,119.168599 C58.7427819,119.18873 58.481668,119.208274 58.2219212,119.23114 C58.0676354,119.245212 57.9084673,119.262606 57.7502756,119.268078 C57.7293787,119.268078 57.7037946,119.273941 57.6823118,119.273941 C57.5635703,119.276678 57.4528362,119.288208 57.3340948,119.290749 C56.9823624,119.319088 56.6294582,119.333746 56.2697186,119.347818 C56.2289013,119.347818 56.1886698,119.347818 56.1421888,119.35329 C56.0168072,119.362085 55.8812702,119.362085 55.7496391,119.367362 C55.7248362,119.367362 55.6892919,119.367362 55.6598018,119.37342 C55.479932,119.378697 55.3000622,119.378697 55.1188253,119.387492 C54.7739284,119.387492 54.4163371,119.392964 54.0733931,119.392964 C53.7210749,119.392964 53.3753967,119.387492 53.0304998,119.387492 C52.8451617,119.378697 52.6654872,119.378697 52.4875703,119.37342 C52.4600333,119.367362 52.4291761,119.367362 52.398319,119.367362 C52.2594618,119.362085 52.1239248,119.362085 51.9942467,119.35329 C51.9506951,119.347818 51.9184709,119.347818 51.8755052,119.347818 C51.5206481,119.333746 51.1661816,119.319088 50.8132774,119.290749 C50.6837946,119.288208 50.5582177,119.276678 50.4326409,119.273941 C50.4226807,119.268078 50.405885,119.268078 50.3937765,119.268078 C50.245545,119.262606 50.0937982,119.245212 49.9441996,119.239739 C49.6770315,119.219609 49.4092774,119.18873 49.1356644,119.168599 C49.020243,119.151792 48.9059935,119.148469 48.7966264,119.134397 C48.5939067,119.111531 48.387281,119.091987 48.1798741,119.074593 C48.0021526,119.051726 47.8222828,119.023583 47.6451472,119.006775 C47.3941888,118.97785 47.1498705,118.952443 46.9035993,118.912769 C46.7532195,118.895961 46.5989338,118.875831 46.4378127,118.850228 C46.2278669,118.818762 46.0069844,118.785147 45.7896174,118.756221 C45.6995848,118.74215 45.6117005,118.72202 45.5345577,118.707948 L45.4869049,118.707948 L45.4869049,92.0126384 L45.8138344,92.0126384 L45.8138344,94.3471661 L46.9801562,95.5094463 L48.1464781,94.3471661 L48.1464781,92.0126384 L49.3604528,92.0126384 L49.3604528,94.3471661 L49.4409157,94.4208469 L50.5293136,95.5094463 L51.6909483,94.3471661 L51.6909483,92.0126384 L52.90297,92.0126384 L52.90297,94.3471661 L52.9875342,94.4208469 L54.0733931,95.5094463 L55.2403009,94.3471661 L55.2403009,92.0126384 L56.4542756,92.0126384 L56.4542756,94.3471661 L57.6205975,95.5094463 L58.7904347,94.3471661 L58.7904347,92.0126384 L59.998941,92.0126384 L59.998941,94.3471661 L61.1693642,95.5094463 L62.3315848,94.3471661 L62.3315848,92.0126384 L62.6632014,92.0126384 L62.6632014,118.707948 Z M27.7268615,63.2591531 L27.1921345,63.6117264 L27.1921345,69.314658 L23.3824492,69.314658 L23.3824492,61.8521824 L28.7697548,61.8521824 L28.7697548,62.576873 L27.7268615,63.2591531 Z M27.1921345,71.3587622 L24.2702756,69.869316 L27.1921345,69.869316 L27.1921345,71.3587622 Z M27.1921345,74.0398046 L25.2520405,73.0477524 L23.2287494,72.0209121 L21.3357222,71.054658 L0.745805425,60.5527036 L0.745805425,58.5119218 L3.05559928,59.6857329 L3.05559928,51.66 L10.4769374,55.4468404 L10.4769374,63.4700326 L15.4033389,65.9802606 L15.4033389,57.9545277 L22.8260441,61.7413681 L22.8260441,69.7700326 L27.1921345,71.9927687 L27.1921345,74.0398046 Z M27.1921345,75.9107492 L0.745805425,62.4236482 L0.745805425,61.1839739 L2.64820687,62.1564821 L10.6312231,66.2214332 L14.9953606,68.4476873 L19.9606264,70.9780456 L25.9902684,74.0571987 L27.1921345,74.6683388 L27.1921345,75.9107492 Z M27.1921345,112.129251 C23.7306662,110.096482 20.5168362,107.700391 17.6117729,104.973811 C17.6117729,104.973811 17.6117729,104.968534 17.6098199,104.968534 C16.7837078,104.197524 15.9810315,103.390358 15.2027675,102.565603 C15.193979,102.560326 15.1838235,102.551531 15.1838235,102.54 C14.8074835,102.142476 14.4389555,101.741629 14.0778488,101.329251 C14.0651544,101.309121 14.0403515,101.289577 14.0268759,101.269446 C13.2880622,100.430814 12.5814727,99.572443 11.8996861,98.6906189 C11.8735161,98.6597394 11.8473461,98.6282736 11.8211761,98.5913355 C11.5118235,98.1936156 11.2044239,97.7814332 10.9077656,97.3690554 C10.8749555,97.3293811 10.8419501,97.2811075 10.8064058,97.229316 C10.1675848,96.3429967 9.55766799,95.4416287 8.97235877,94.5115309 C8.9329085,94.4519218 8.8971689,94.3893811 8.85693743,94.332899 C8.60402604,93.929316 8.35502061,93.5224104 8.11148354,93.1100326 C8.0691038,93.042215 8.02828644,92.9650163 7.98590669,92.8944625 C7.44239132,91.9616287 6.928366,91.0147231 6.44109656,90.0537459 C6.39813092,89.9605212 6.35379819,89.8803909 6.31024665,89.7899023 C6.11162821,89.3828013 5.91496275,88.9852769 5.72435154,88.5783713 C5.68353418,88.4816287 5.63451429,88.3909446 5.59096275,88.2889251 C5.14587776,87.3191531 4.72793924,86.3325733 4.33929548,85.3233225 C4.29691573,85.2152443 4.25746546,85.10443 4.21371863,84.9936156 C4.05884702,84.5986319 3.91452152,84.1917264 3.77703146,83.794202 C3.73133165,83.6745928 3.6889519,83.552443 3.64344738,83.4328339 C3.30108933,82.4261238 2.98646365,81.4028013 2.6925396,80.3712704 C2.66500253,80.2428664 2.62398987,80.106645 2.58844557,79.981759 C2.47966438,79.5834528 2.37849982,79.1771336 2.27850705,78.7735505 C2.24764991,78.6426059 2.21191031,78.4975896 2.17988137,78.366645 C1.93146184,77.3235831 1.71604774,76.2713355 1.53422495,75.2108795 C1.51196094,75.0658632 1.48383797,74.9181107 1.45981627,74.7764169 C1.39595371,74.3722476 1.33423942,73.9659283 1.27311103,73.5562866 C1.2524094,73.405798 1.23092658,73.2553094 1.20866257,73.1130293 C1.06648535,72.0385016 0.955751175,70.952443 0.882709584,69.8579805 C0.875874141,69.7041694 0.865913924,69.5564169 0.857125497,69.4031922 C0.832908499,68.9874919 0.809472694,68.5758958 0.790724051,68.1547231 C0.78603689,67.9983713 0.775881374,67.853355 0.775881374,67.6973941 C0.759085714,67.1487948 0.745805425,66.596873 0.745805425,66.0340065 L0.745805425,63.0576547 L27.1921345,76.5385016 L27.1921345,112.129251 Z M0.745805425,57.3003909 L2.49860832,57.3003909 L2.49860832,58.7732248 L0.745805425,57.8779153 L0.745805425,57.3003909 Z M15.5429772,54.9975244 L10.8259356,54.9975244 L3.94401157,51.486645 L8.65831899,51.486645 L13.8585288,54.1366124 L15.5429772,54.9975244 Z M21.0074257,57.7839088 L22.4120116,58.4970684 L27.8920839,61.2895114 L23.1689881,61.2895114 L16.2864781,57.7839088 L21.0074257,57.7839088 Z M14.8430278,63.5808469 L14.8430278,65.0677524 L11.9231219,63.5808469 L14.8430278,63.5808469 Z M11.0352955,63.0207166 L11.0352955,55.555114 L16.4286553,55.555114 L16.4286553,57.2177199 L14.8430278,57.2177199 L14.8430278,63.0207166 L11.0352955,63.0207166 Z M37.9837367,63.4813681 L28.4100152,63.4813681 L29.1416029,63.0119218 L38.4292123,63.0119218 L37.9837367,63.4813681 Z M39.2189989,70.563127 L48.4712593,70.563127 L48.4712593,71.5092508 L38.6178705,71.5092508 L39.2189989,70.563127 Z M38.7815306,70.2044951 L38.3909338,70.8189577 L38.3909338,63.8736156 L38.7815306,63.4471661 L38.7815306,70.2044951 Z M14.4168868,28.0385668 L36.0965685,28.0385668 L36.0965685,62.4431922 L29.3382684,62.4431922 L29.3382684,61.3970033 L21.1415957,57.2151792 L16.9889664,57.2151792 L16.9889664,55.1003257 L15.2193678,54.1991531 L14.4168868,53.7895114 L14.4168868,28.0385668 Z M37.8138271,25.2267752 C37.6474329,25.4824104 37.4535016,25.8175896 37.3279248,26.1676221 C37.1648506,26.6335505 37.116026,27.1594788 37.1017693,27.475114 L13.4136391,27.475114 C13.4021165,27.1594788 13.3505577,26.6335505 13.1874835,26.1676221 C13.0619067,25.8175896 12.8652412,25.4824104 12.698847,25.2267752 L37.8138271,25.2267752 Z M23.8917873,4.03211726 C23.8937403,3.2734202 24.5017042,2.65954397 25.2586807,2.65954397 C26.0137042,2.65954397 26.619715,3.2734202 26.623621,4.03211726 C26.619715,4.7857329 26.0137042,5.39687296 25.2586807,5.39687296 C24.5017042,5.39687296 23.8937403,4.7857329 23.8917873,4.03211726 L23.8917873,4.03211726 Z M31.0916571,14.7730945 L34.3396644,19.551987 L34.3396644,22.7874919 L31.1527855,22.7874919 L31.1527855,19.1880782 L26.8464564,19.1880782 L26.8464564,22.7874919 L23.6662177,22.7874919 L23.6662177,19.1880782 L19.3626228,19.1880782 L19.3626228,22.7874919 L16.1776969,22.7874919 L16.1776969,19.551987 L25.2586807,6.17042345 L31.0916571,14.7730945 Z M19.9229338,23.3530945 L19.9229338,19.748013 L23.1039537,19.748013 L23.1039537,23.3530945 L27.4114546,23.3530945 L27.4114546,19.748013 L30.5897403,19.748013 L30.5897403,23.3530945 L34.8966553,23.3530945 L34.8966553,19.748013 L38.0802141,19.748013 L38.0802141,24.666645 L12.4351942,24.666645 L12.4351942,19.748013 L15.6160188,19.748013 L15.6160188,23.3530945 L19.9229338,23.3530945 Z M0.745805425,49.2779805 L4.11313996,49.2779805 L4.11313996,50.9267101 L2.49860832,50.9267101 L2.49860832,56.7234528 L0.745805425,56.7234528 L0.745805425,49.2779805 Z M0.745805425,47.4500326 L1.54301338,47.8561564 L3.22726655,48.7205863 L0.745805425,48.7205863 L0.745805425,47.4500326 Z M0.184713201,0.182931596 L0.184713201,66.0340065 C0.184713201,66.4518567 0.1968217,66.8667752 0.201508861,67.2818893 C0.203461844,67.3758958 0.208734901,67.472443 0.211469078,67.5752443 C0.215570344,67.9788274 0.234318987,68.3939414 0.255801808,68.8029967 L0.255801808,68.8115961 C0.276698734,69.2239739 0.303454611,69.627557 0.334311754,70.0371987 C0.343100181,70.1394137 0.347787342,70.2386971 0.357747559,70.3381759 C0.385284629,70.7249511 0.420828933,71.1089902 0.464575769,71.5012378 L0.464575769,71.5549837 C0.502073056,71.9618893 0.551874141,72.3621498 0.600698734,72.760456 C0.614760217,72.8630619 0.62764991,72.9592182 0.639758409,73.0620195 C0.690731284,73.4259283 0.736235805,73.7925733 0.790724051,74.1531596 C0.800684268,74.1900977 0.804785533,74.2303583 0.809472694,74.2672964 C0.871772875,74.6568078 0.937002532,75.0463192 1.00340398,75.4325081 C1.02019964,75.5405863 1.04109656,75.6461238 1.05769693,75.7514658 C1.12214539,76.0893811 1.18327378,76.4278827 1.2524094,76.7636482 C1.26647089,76.8259935 1.27779819,76.8797394 1.28795371,76.939544 C1.36783074,77.3177199 1.44634069,77.6929642 1.53422495,78.0623453 C1.56176203,78.1792182 1.5885179,78.2872964 1.60941483,78.4008469 C1.68245642,78.7076873 1.75569331,79.0180456 1.83557034,79.3303583 C1.85763906,79.4042345 1.87912188,79.4839739 1.89591754,79.5633225 C1.98985606,79.9274267 2.08984882,80.283127 2.18652152,80.6439088 C2.21737866,80.7687948 2.25761013,80.8882085 2.29120145,81.0105537 C2.37303146,81.2865147 2.45818156,81.5679479 2.54352694,81.8439088 C2.57496998,81.9433876 2.60055407,82.0454072 2.62945823,82.1394137 C2.73804412,82.4859283 2.8487783,82.8271661 2.96029367,83.1656678 C3.0052123,83.2966124 3.05208391,83.4328339 3.09778373,83.5637785 C3.18312911,83.8135505 3.27491935,84.0580456 3.3649519,84.3085993 C3.40518336,84.4246906 3.45088318,84.5442997 3.49521591,84.6664495 C3.61122315,84.9881433 3.73133165,85.3117915 3.8567132,85.6301629 C3.91452152,85.7751792 3.97350163,85.9229316 4.03189584,86.0654072 C4.11782712,86.2870358 4.20297722,86.5031922 4.29691573,86.7220847 C4.34945099,86.8612378 4.41253237,86.998241 4.47483255,87.1317264 C4.6004094,87.4413029 4.72793924,87.7456026 4.86347631,88.04443 C4.93456492,88.2037134 5.00975479,88.3594788 5.0808434,88.5158306 C5.16814177,88.7038436 5.25270597,88.8912704 5.33590307,89.0704886 C5.41363183,89.229772 5.49018879,89.3888599 5.57006582,89.5508795 C5.70560289,89.8321173 5.83977288,90.1080782 5.98409837,90.3867752 C6.07608391,90.5601303 6.15928101,90.7332899 6.25126655,90.906645 C6.33446365,91.060456 6.41219241,91.2142671 6.48738228,91.3645603 C6.62975479,91.626645 6.77193201,91.8789577 6.91157034,92.1349837 C7.01156311,92.314202 7.11214177,92.4936156 7.20276022,92.6695114 C7.31681447,92.854202 7.42754864,93.050228 7.53437685,93.238241 C7.60741844,93.3545277 7.67655407,93.4714007 7.75174394,93.5962866 C8.13218517,94.2388925 8.52551609,94.872899 8.9329085,95.4981107 C8.99130271,95.5833225 9.05164991,95.6720521 9.10789584,95.76 C9.54282532,96.4108143 9.98380904,97.0534202 10.4394401,97.6758958 C10.4829917,97.7411726 10.5292774,97.8009772 10.5675559,97.8525733 C11.0501382,98.5174593 11.5446336,99.1600651 12.0485034,99.7852769 C12.0795559,99.822215 12.1049447,99.8511401 12.1264275,99.8847557 C12.6566626,100.544169 13.203498,101.184235 13.7618561,101.818241 C13.7665432,101.82684 13.7766987,101.832313 13.7833389,101.834853 C17.7271942,106.278567 22.3952159,110.062866 27.5995269,113.011075 L27.7477584,113.099023 L27.7477584,113.087687 C31.7084094,115.316482 35.9838814,117.056482 40.4894148,118.230489 L40.5021092,118.230489 C40.5726119,118.247296 40.6356933,118.269967 40.7001418,118.284821 C40.7067819,118.287557 40.7188904,118.287557 40.7337331,118.287557 C43.8850676,119.097459 47.1545577,119.615179 50.5058778,119.845603 C50.5461092,119.845603 50.5857548,119.845603 50.6334076,119.848143 C50.6609447,119.848143 50.696489,119.853616 50.7380875,119.853616 C50.7843732,119.853616 50.832026,119.853616 50.8796788,119.864951 C51.9319465,119.924756 53.0015957,119.961694 54.0733931,119.961694 C55.1457765,119.961694 56.2052702,119.924756 57.2608579,119.864951 C57.3131978,119.853616 57.3717873,119.853616 57.423932,119.853616 C57.4643588,119.853616 57.4952159,119.848143 57.5327132,119.848143 C57.5735306,119.845603 57.6205975,119.845603 57.6635631,119.845603 C61.0873389,119.609121 64.4234257,119.074593 67.6411617,118.230489 L67.6579573,118.230489 C72.1607566,117.056482 76.4356427,115.316482 80.3996137,113.087687 L80.3996137,113.099023 L80.593545,112.988208 C84.2663262,110.90443 87.6539718,108.405537 90.7254293,105.565407 C90.7301165,105.556808 90.742225,105.550749 90.7469121,105.539218 C91.3617114,104.962476 91.9716282,104.379479 92.5608434,103.777134 C92.5875993,103.745472 92.6186517,103.717329 92.6467747,103.691726 C93.2070857,103.10013 93.7707168,102.509121 94.3122792,101.903453 C94.3519248,101.849707 94.3995776,101.795375 94.4452774,101.741629 C94.9659429,101.155896 95.4672738,100.567036 95.9664564,99.9506189 C96.0236788,99.8767427 96.0865649,99.7940717 96.1531617,99.7201954 C96.6242213,99.1258632 97.0812195,98.5375896 97.523375,97.923127 C97.5991508,97.8211075 97.6790278,97.7216287 97.7555848,97.6108143 C97.8858488,97.4315961 98.0172846,97.2521824 98.1448145,97.0674919 C98.2635559,96.9029316 98.3750712,96.7405212 98.4891255,96.5732248 C98.6541526,96.3281433 98.8246481,96.0783713 98.9877222,95.8366124 C99.0802937,95.6941368 99.1701309,95.5665147 99.2548904,95.4269707 C99.3667964,95.2596743 99.4775306,95.0917915 99.5769374,94.9186319 C99.7474329,94.665342 99.9105071,94.4040391 100.067527,94.1423453 C100.168106,93.9830619 100.25599,93.8265147 100.346022,93.6674267 C100.454608,93.5028664 100.549914,93.340456 100.644634,93.1758958 C100.740525,93.0166124 100.823722,92.8628013 100.916294,92.7037134 C101.072728,92.4250163 101.233849,92.1463192 101.386767,91.8623453 C101.461371,91.7226059 101.541053,91.5809121 101.61429,91.4384365 C101.716236,91.2424104 101.82033,91.0516612 101.92169,90.852899 C101.994731,90.7106189 102.071288,90.5689251 102.147064,90.4211726 C102.297444,90.1196091 102.451729,89.8180456 102.591368,89.5198046 C102.655035,89.3943322 102.712843,89.2639739 102.771238,89.1418241 C102.877871,88.9227362 102.98255,88.6925081 103.091332,88.4708795 C103.15246,88.3371987 103.210854,88.2062541 103.271201,88.0725733 C103.412793,87.7569381 103.55165,87.4327036 103.687187,87.1115961 C103.73152,87.0062541 103.779173,86.8927036 103.822138,86.7873616 C103.933458,86.5373941 104.034232,86.2788274 104.134225,86.0196743 C104.181878,85.9035831 104.230898,85.7812378 104.27855,85.6618241 C104.408619,85.3233225 104.539469,84.9820847 104.665046,84.647101 C104.696489,84.5556352 104.728127,84.4676873 104.760937,84.3797394 C104.86093,84.0897068 104.959556,83.8110098 105.062283,83.5268404 C105.09978,83.4160261 105.13552,83.3052117 105.173017,83.1910749 C105.291758,82.8418241 105.40718,82.480456 105.517914,82.1220195 C105.544865,82.0481433 105.565567,81.9775896 105.58705,81.9003909 C105.684308,81.5960912 105.774341,81.2865147 105.860858,80.9796743 C105.896402,80.8688599 105.923353,80.7687948 105.95421,80.6640391 C106.052836,80.2938762 106.161422,79.9192182 106.257509,79.5492508 C106.266102,79.4927687 106.282898,79.4384365 106.293053,79.3786319 C106.376836,79.0489251 106.462182,78.7104235 106.536004,78.3807166 C106.568814,78.2759609 106.583657,78.1819544 106.611194,78.0852117 C106.69693,77.701759 106.782276,77.3177199 106.867426,76.928013 C106.867426,76.885798 106.876214,76.8455375 106.884221,76.803127 C106.957458,76.448013 107.0305,76.0927036 107.087527,75.7401303 C107.106471,75.6433876 107.127173,75.546645 107.14182,75.4438436 C107.21037,75.0517915 107.273451,74.6568078 107.337899,74.2612378 C107.34454,74.2303583 107.34454,74.2076873 107.350008,74.1820847 C107.402348,73.8039088 107.461328,73.4286645 107.501559,73.0592834 C107.517769,72.9592182 107.527925,72.8630619 107.538666,72.760456 C107.590811,72.3654723 107.645299,71.9618893 107.682796,71.5549837 C107.682796,71.5354397 107.688851,71.5207818 107.688851,71.5012378 C107.73123,71.1170033 107.762088,70.7249511 107.787476,70.3381759 C107.799585,70.2386971 107.808959,70.1394137 107.81638,70.0371987 C107.845871,69.627557 107.870673,69.2292508 107.889422,68.8176547 L107.889422,68.7947883 C107.910905,68.3912052 107.927701,67.9815635 107.936489,67.5859935 C107.94391,67.4751792 107.94391,67.3758958 107.948597,67.2736808 C107.952503,66.8640391 107.958558,66.4491205 107.958558,66.0340065 L107.958558,0.182931596 L0.184713201,0.182931596 Z M24.9821382,33.1295765 L21.6120694,33.1295765 L21.6120694,37.6645603 L24.9821382,37.6645603 L24.9821382,33.1295765 Z M28.9033389,33.1295765 L25.535809,33.1295765 L25.535809,37.6645603 L28.9033389,37.6645603 L28.9033389,33.1295765 Z M57.6368072,25.1212378 L61.9605179,31.3016287 L43.9354546,43.9356352 L39.6117439,37.7552443 L57.6368072,25.1212378 Z M65.3883949,36.1973941 L65.3883949,36.194658 L66.6070568,37.9399349 L48.5792593,50.5714007 L44.2569157,44.3910098 L62.2847132,31.759544 L65.3883949,36.1973941 Z M68.7551436,44.4762215 C68.7551436,47.9501629 67.1203009,51.361759 64.0656391,53.5080782 C62.1403877,54.8499674 59.9438669,55.4978502 57.7643371,55.4978502 C54.3813787,55.4978502 51.0595486,53.9345277 48.9059935,51.029316 L66.9244166,38.406645 C68.1592882,40.2682085 68.7551436,42.3811075 68.7551436,44.4762215 L68.7551436,44.4762215 Z M48.2786951,51.1254723 L48.4450893,51.3504235 L48.4470423,51.3504235 C50.7025432,54.4147231 54.2015089,56.0640391 57.7643371,56.0640391 C60.0553823,56.0640391 62.3643949,55.381759 64.3896391,53.962671 C67.5987819,51.7170684 69.3168217,48.118241 69.3168217,44.4762215 C69.3168217,42.27557 68.6865939,40.0467752 67.3814148,38.0824104 L67.386102,38.0763518 L64.2576174,33.6078176 L57.7770315,24.3449511 L38.8258633,37.6129642 L40.3665722,39.8196743 L48.2786951,51.1254723 Z M24.9801852,38.2274267 L21.6120694,38.2274267 L21.6120694,44.1685993 L24.9801852,44.1685993 L24.9801852,38.2274267 Z" id="Fill-5" fill="#262321"></path>
                </g>
            </g>
        </g>
    </g>
</svg>