<svg xmlns="http://www.w3.org/2000/svg" width="93" height="76" viewBox="0 0 93 76" xmlns:xlink="http://www.w3.org/1999/xlink">
  <defs>
    <path id="a" d="M27.7601734,43.8745509 C27.7664027,43.9244225 27.7695694,43.9748528 27.7695694,44.0258152 C27.7695694,46.0288086 26.5754955,49.4042987 23.106609,50.6668701 C19.6377225,51.9294416 16.0070228,50.7943317 15.2076201,48.5979908 C14.4082174,46.40165 15.9400906,43.3668195 19.4089771,42.104248 C21.0983742,41.4893578 23.1252395,41.4540752 24.7601734,41.811056 L24.7601734,19.4912569 C24.7601734,18.6676585 25.4259707,18 26.2601734,18 C27.0886006,18 27.7601734,18.6688281 27.7601734,19.4912569 L27.7601734,43.8745509 Z M65.009396,43.8745509 C65.0031667,43.9244225 65,43.9748528 65,44.0258152 C65,46.0288086 66.1940739,49.4042987 69.6629604,50.6668701 C73.1318469,51.9294416 76.7625466,50.7943317 77.5619493,48.5979908 C78.361352,46.40165 76.8294788,43.3668195 73.3605922,42.104248 C71.6711952,41.4893578 69.6443299,41.4540752 68.009396,41.811056 L68.009396,19.4912569 C68.009396,18.6676585 67.3435987,18 66.509396,18 C65.6809688,18 65.009396,18.6688281 65.009396,19.4912569 L65.009396,43.8745509 Z M48,62.6656476 L48,17.9634404 C48,17.1364682 47.3286,16.4663872 46.5,16.4663872 C45.6714,16.4663872 45,17.1364682 45,17.9634404 L45,62.6656476 C45,63.4926198 45.6714,64.1627008 46.5,64.1627008 C47.3286,64.1627008 48,63.4926198 48,62.6656476 Z M91.5,6.71797619 C88.3288,6.71797619 84.3772,5.35226449 80.1934,3.90651034 C74.895,2.07531491 68.8892,0 62.6608,0 C55.4538,0 51.057,3.15199555 48.6378,5.79619066 C47.733,6.78544339 47.0318,7.7766922 46.5002,8.65596142 C45.9686,7.7766922 45.2674,6.78544339 44.3626,5.79619066 C41.9432,3.15199555 37.5466,0 30.3396,0 C24.111,0 18.1054,2.07531491 12.807,3.90651034 C8.6228,5.35226449 4.6712,6.71797619 1.5,6.71797619 C0.6714,6.71797619 0,7.38805719 0,8.21502936 L0,68.5147342 C0,69.3417063 0.6714,70.0117873 1.5,70.0117873 C5.176,70.0117873 9.3594,68.5660332 13.7882,67.035446 C18.8632,65.2816981 24.6154,63.2938111 30.3392,63.2938111 C35.2472,63.2938111 39.2198,64.9158183 42.1468,68.1147215 C42.7052,68.72512 43.6542,68.7680356 44.266,68.210533 C44.8778,67.6530304 44.9206,66.7060943 44.362,66.0954962 C41.9426,63.4515007 37.546,60.2995052 30.3392,60.2995052 C24.1106,60.2995052 18.105,62.3748201 12.8066,64.2060155 C9.2596,65.4322019 5.8792,66.600103 3,66.9274586 L3,9.6378287 C6.2982,9.32424596 9.951,8.06173112 13.7882,6.73574123 C18.8632,4.98199334 24.6154,2.99410634 30.3392,2.99410634 C41.9154,2.99410634 44.9442,12.1684474 45.066,12.5540883 C45.2596,13.1824514 45.8412,13.6116066 46.5,13.6116066 C47.1588,13.6116066 47.7404,13.182651 47.934,12.5540883 C47.9632,12.4584765 51.0106,2.99410634 62.6608,2.99410634 C68.3846,2.99410634 74.1368,4.98199334 79.2118,6.73574123 C83.0492,8.06193073 86.7018,9.32424596 90,9.6378287 L90,66.9274586 C87.1208,66.600103 83.7404,65.4322019 80.1934,64.2062151 C74.895,62.3750197 68.8892,60.2997048 62.6608,60.2997048 C55.4536,60.2997048 51.0568,63.4517003 48.6378,66.0958954 C48.0792,66.7066931 48.1222,67.6534296 48.7338,68.2109322 C49.3458,68.7684348 50.2946,68.7255192 50.853,68.1151208 C53.78,64.9160179 57.7526,63.2940107 62.6608,63.2940107 C68.3846,63.2940107 74.1368,65.2818977 79.2118,67.0356456 C83.6408,68.5662328 87.8242,70.0119869 91.5,70.0119869 C92.3286,70.0119869 93,69.3419059 93,68.5149338 L93,8.21502936 C93,7.3882568 92.3286,6.71797619 91.5,6.71797619 Z M91.5,73.0058937 C88.3288,73.0058937 84.3772,71.640182 80.1934,70.1944278 C74.895,68.3632324 68.8892,66.2879175 62.6608,66.2879175 C55.8922,66.2879175 51.6026,69.068045 49.1016,71.5966676 L43.8982,71.596468 C41.3972,69.0678454 37.1074,66.2879175 30.3392,66.2879175 C24.1106,66.2879175 18.105,68.3632324 12.8066,70.1944278 C8.6228,71.640182 4.6712,73.0058937 1.5,73.0058937 C0.6714,73.0058937 0,73.6759747 0,74.5029468 C0,75.329919 0.6714,76 1.5,76 C5.176,76 9.3594,74.5542459 13.7882,73.0236587 C18.8632,71.2699108 24.6154,69.2820238 30.3392,69.2820238 C35.2472,69.2820238 39.2198,70.904031 42.1468,74.1029342 C42.431,74.4135229 42.833,74.5903747 43.2544,74.5903747 L49.7452,74.5905743 C50.1666,74.5905743 50.5686,74.4135229 50.8528,74.1031338 C53.7798,70.904031 57.7524,69.2820238 62.6606,69.2820238 C68.3844,69.2820238 74.1366,71.2699108 79.2116,73.0236587 C83.6406,74.5542459 87.824,76 91.4998,76 C92.3284,76 92.9998,75.329919 92.9998,74.5029468 C92.9998,73.6759747 92.3286,73.0058937 91.5,73.0058937 Z"/>
    <mask id="b" width="93" height="76" x="0" y="0" fill="white">
      <use xlink:href="#a"/>
    </mask>
  </defs>
  <use fill="none" fill-rule="evenodd" stroke="#FFFFFF" stroke-width="6" mask="url(#b)" xlink:href="#a"/>
</svg>
